<svg xmlns="http://www.w3.org/2000/svg" xmlns:xlink="http://www.w3.org/1999/xlink" width="1920.726" height="670.09" viewBox="0 0 1920.726 670.09">
    <defs>
        <linearGradient id="linear-gradient" x2="1" y1=".521" y2=".518" gradientUnits="objectBoundingBox">
            <stop offset="0" stop-color="#fff"/>
            <stop offset="1" stop-color="#f5f6ff"/>
        </linearGradient>
        <linearGradient id="linear-gradient-2" x2="1" y1=".515" y2=".515" gradientUnits="objectBoundingBox">
            <stop offset="0" stop-color="#f5f6ff"/>
            <stop offset="1" stop-color="#fff"/>
        </linearGradient>
        <linearGradient id="linear-gradient-3" y1=".5" y2=".5" xlink:href="#linear-gradient"/>
        <linearGradient id="linear-gradient-4" y1=".5" y2=".5" xlink:href="#linear-gradient-2"/>
        <linearGradient id="linear-gradient-5" x1="1" x2="0" y1=".5" y2=".5" xlink:href="#linear-gradient-2"/>
        <linearGradient id="linear-gradient-6" y1=".513" y2=".518" xlink:href="#linear-gradient-2"/>
        <linearGradient id="linear-gradient-7" y1=".491" y2=".486" xlink:href="#linear-gradient"/>
        <linearGradient id="linear-gradient-9" y1=".469" y2=".473" xlink:href="#linear-gradient-2"/>
        <style>
            .cls-1{fill:#fff}.cls-2{fill:url(#linear-gradient)}.cls-3{fill:#f5f6ff}.cls-4{fill:url(#linear-gradient-2)}.cls-5{fill:url(#linear-gradient-3)}.cls-6{fill:url(#linear-gradient-4)}.cls-7{fill:url(#linear-gradient-5)}.cls-8{fill:url(#linear-gradient-6)}.cls-9{fill:url(#linear-gradient-7)}.cls-10{fill:url(#linear-gradient-9)}
        </style>
    </defs>
    <g id="Background" transform="translate(-.537 -94.68)">
        <g id="Group_94" transform="translate(0 -130)">
            <g id="Group_61" transform="translate(1195.537 224.68)">
                <path id="Path_627" d="M57.97 27.743v83.467l72.285 41.734 72.284-41.734V27.743L130.255-13.99z" class="cls-1" transform="translate(-56.392 15.568)"/>
                <path id="Path_628" d="M131.386 155.656a1.541 1.541 0 0 1-.786-.21l-72.285-41.731a1.586 1.586 0 0 1-.789-1.369V28.879a1.586 1.586 0 0 1 .789-1.369L130.6-14.225a1.586 1.586 0 0 1 1.575 0l72.284 41.735a1.581 1.581 0 0 1 .793 1.369v83.467a1.581 1.581 0 0 1-.793 1.369l-72.284 41.732a1.554 1.554 0 0 1-.789.209zm-70.7-44.22l70.7 40.821 70.706-40.821V29.79l-70.706-40.822L60.687 29.79z" class="cls-2" transform="translate(-57.526 14.434)"/>
            </g>
            <g id="Group_62" transform="translate(1339.537 224.68)">
                <path id="Path_627-2" d="M57.97 27.743v83.467l72.285 41.734 72.284-41.734V27.743L130.255-13.99z" class="cls-1" transform="translate(-56.392 15.568)"/>
                <path id="Path_628-2" d="M131.386 155.656a1.541 1.541 0 0 1-.786-.21l-72.285-41.731a1.586 1.586 0 0 1-.789-1.369V28.879a1.586 1.586 0 0 1 .789-1.369L130.6-14.225a1.586 1.586 0 0 1 1.575 0l72.284 41.735a1.581 1.581 0 0 1 .793 1.369v83.467a1.581 1.581 0 0 1-.793 1.369l-72.284 41.732a1.554 1.554 0 0 1-.789.209zm-70.7-44.22l70.7 40.821 70.706-40.821V29.79l-70.706-40.822L60.687 29.79z" class="cls-3" transform="translate(-57.526 14.434)"/>
            </g>
            <g id="Group_63" transform="translate(1483.537 224.68)">
                <path id="Path_627-3" d="M57.97 27.743v83.467l72.285 41.734 72.284-41.734V27.743L130.255-13.99z" class="cls-1" transform="translate(-56.392 15.568)"/>
                <path id="Path_628-3" d="M131.386 155.656a1.541 1.541 0 0 1-.786-.21l-72.285-41.731a1.586 1.586 0 0 1-.789-1.369V28.879a1.586 1.586 0 0 1 .789-1.369L130.6-14.225a1.586 1.586 0 0 1 1.575 0l72.284 41.735a1.581 1.581 0 0 1 .793 1.369v83.467a1.581 1.581 0 0 1-.793 1.369l-72.284 41.732a1.554 1.554 0 0 1-.789.209zm-70.7-44.22l70.7 40.821 70.706-40.821V29.79l-70.706-40.822L60.687 29.79z" class="cls-3" transform="translate(-57.526 14.434)"/>
            </g>
            <g id="Group_64" transform="translate(1627.537 224.68)">
                <path id="Path_627-4" d="M57.97 27.743v83.467l72.285 41.734 72.284-41.734V27.743L130.255-13.99z" class="cls-1" transform="translate(-56.392 15.568)"/>
                <path id="Path_628-4" d="M131.386 155.656a1.541 1.541 0 0 1-.786-.21l-72.285-41.731a1.586 1.586 0 0 1-.789-1.369V28.879a1.586 1.586 0 0 1 .789-1.369L130.6-14.225a1.586 1.586 0 0 1 1.575 0l72.284 41.735a1.581 1.581 0 0 1 .793 1.369v83.467a1.581 1.581 0 0 1-.793 1.369l-72.284 41.732a1.554 1.554 0 0 1-.789.209zm-70.7-44.22l70.7 40.821 70.706-40.821V29.79l-70.706-40.822L60.687 29.79z" class="cls-4" transform="translate(-57.526 14.434)"/>
            </g>
        </g>
        <g id="Group_93" transform="translate(0 -130)">
            <g id="Group_73" transform="translate(1123.537 349.68)">
                <path id="Path_627-5" d="M57.97 27.743v83.467l72.285 41.734 72.284-41.734V27.743L130.255-13.99z" class="cls-1" transform="translate(-56.392 15.568)"/>
                <path id="Path_628-5" d="M131.386 155.656a1.541 1.541 0 0 1-.786-.21l-72.285-41.731a1.586 1.586 0 0 1-.789-1.369V28.879a1.586 1.586 0 0 1 .789-1.369L130.6-14.225a1.586 1.586 0 0 1 1.575 0l72.284 41.735a1.581 1.581 0 0 1 .793 1.369v83.467a1.581 1.581 0 0 1-.793 1.369l-72.284 41.732a1.554 1.554 0 0 1-.789.209zm-70.7-44.22l70.7 40.821 70.706-40.821V29.79l-70.706-40.822L60.687 29.79z" class="cls-5" transform="translate(-57.526 14.434)"/>
            </g>
            <g id="Group_74" transform="translate(1267.537 349.68)">
                <path id="Path_627-6" d="M57.97 27.743v83.467l72.285 41.734 72.284-41.734V27.743L130.255-13.99z" class="cls-1" transform="translate(-56.392 15.568)"/>
                <path id="Path_628-6" d="M131.386 155.656a1.541 1.541 0 0 1-.786-.21l-72.285-41.731a1.586 1.586 0 0 1-.789-1.369V28.879a1.586 1.586 0 0 1 .789-1.369L130.6-14.225a1.586 1.586 0 0 1 1.575 0l72.284 41.735a1.581 1.581 0 0 1 .793 1.369v83.467a1.581 1.581 0 0 1-.793 1.369l-72.284 41.732a1.554 1.554 0 0 1-.789.209zm-70.7-44.22l70.7 40.821 70.706-40.821V29.79l-70.706-40.822L60.687 29.79z" class="cls-3" transform="translate(-57.526 14.434)"/>
            </g>
            <g id="Group_75" transform="translate(1411.537 349.68)">
                <path id="Path_627-7" d="M57.97 27.743v83.467l72.285 41.734 72.284-41.734V27.743L130.255-13.99z" class="cls-1" transform="translate(-56.392 15.568)"/>
                <path id="Path_628-7" d="M131.386 155.656a1.541 1.541 0 0 1-.786-.21l-72.285-41.731a1.586 1.586 0 0 1-.789-1.369V28.879a1.586 1.586 0 0 1 .789-1.369L130.6-14.225a1.586 1.586 0 0 1 1.575 0l72.284 41.735a1.581 1.581 0 0 1 .793 1.369v83.467a1.581 1.581 0 0 1-.793 1.369l-72.284 41.732a1.554 1.554 0 0 1-.789.209zm-70.7-44.22l70.7 40.821 70.706-40.821V29.79l-70.706-40.822L60.687 29.79z" class="cls-3" transform="translate(-57.526 14.434)"/>
            </g>
            <g id="Group_76" transform="translate(1555.537 349.68)">
                <path id="Path_627-8" d="M57.97 27.743v83.467l72.285 41.734 72.284-41.734V27.743L130.255-13.99z" class="cls-1" transform="translate(-56.392 15.568)"/>
                <path id="Path_628-8" d="M131.386 155.656a1.541 1.541 0 0 1-.786-.21l-72.285-41.731a1.586 1.586 0 0 1-.789-1.369V28.879a1.586 1.586 0 0 1 .789-1.369L130.6-14.225a1.586 1.586 0 0 1 1.575 0l72.284 41.735a1.581 1.581 0 0 1 .793 1.369v83.467a1.581 1.581 0 0 1-.793 1.369l-72.284 41.732a1.554 1.554 0 0 1-.789.209zm-70.7-44.22l70.7 40.821 70.706-40.821V29.79l-70.706-40.822L60.687 29.79z" class="cls-3" transform="translate(-57.526 14.434)"/>
            </g>
            <g id="Group_77" transform="translate(1701.537 349.68)">
                <path id="Path_627-9" d="M57.97 27.743v83.467l72.285 41.734 72.284-41.734V27.743L130.255-13.99z" class="cls-1" transform="translate(-56.392 15.568)"/>
                <path id="Path_628-9" d="M131.386 155.656a1.541 1.541 0 0 1-.786-.21l-72.285-41.731a1.586 1.586 0 0 1-.789-1.369V28.879a1.586 1.586 0 0 1 .789-1.369L130.6-14.225a1.586 1.586 0 0 1 1.575 0l72.284 41.735a1.581 1.581 0 0 1 .793 1.369v83.467a1.581 1.581 0 0 1-.793 1.369l-72.284 41.732a1.554 1.554 0 0 1-.789.209zm-70.7-44.22l70.7 40.821 70.706-40.821V29.79l-70.706-40.822L60.687 29.79z" class="cls-6" transform="translate(-57.526 14.434)"/>
            </g>
        </g>
        <g id="Group_92" transform="translate(-2 -132)">
            <g id="Group_86" transform="translate(1053.537 477.68)">
                <path id="Path_627-10" d="M57.97 27.743v83.467l72.285 41.734 72.284-41.734V27.743L130.255-13.99z" class="cls-1" transform="translate(-56.392 15.568)"/>
                <path id="Path_628-10" d="M131.386 155.656a1.541 1.541 0 0 1-.786-.21l-72.285-41.731a1.586 1.586 0 0 1-.789-1.369V28.879a1.586 1.586 0 0 1 .789-1.369L130.6-14.225a1.586 1.586 0 0 1 1.575 0l72.284 41.735a1.581 1.581 0 0 1 .793 1.369v83.467a1.581 1.581 0 0 1-.793 1.369l-72.284 41.732a1.554 1.554 0 0 1-.789.209zm-70.7-44.22l70.7 40.821 70.706-40.821V29.79l-70.706-40.822L60.687 29.79z" class="cls-7" transform="translate(-57.526 14.434)"/>
            </g>
            <g id="Group_87" transform="translate(1197.537 477.68)">
                <path id="Path_627-11" d="M57.97 27.743v83.467l72.285 41.734 72.284-41.734V27.743L130.255-13.99z" class="cls-1" transform="translate(-56.392 15.568)"/>
                <path id="Path_628-11" d="M131.386 155.656a1.541 1.541 0 0 1-.786-.21l-72.285-41.731a1.586 1.586 0 0 1-.789-1.369V28.879a1.586 1.586 0 0 1 .789-1.369L130.6-14.225a1.586 1.586 0 0 1 1.575 0l72.284 41.735a1.581 1.581 0 0 1 .793 1.369v83.467a1.581 1.581 0 0 1-.793 1.369l-72.284 41.732a1.554 1.554 0 0 1-.789.209zm-70.7-44.22l70.7 40.821 70.706-40.821V29.79l-70.706-40.822L60.687 29.79z" class="cls-3" transform="translate(-57.526 14.434)"/>
            </g>
            <g id="Group_88" transform="translate(1342.537 476.68)">
                <path id="Path_627-12" d="M57.97 27.743v83.467l72.285 41.734 72.284-41.734V27.743L130.255-13.99z" class="cls-1" transform="translate(-56.392 15.568)"/>
                <path id="Path_628-12" d="M131.386 155.656a1.541 1.541 0 0 1-.786-.21l-72.285-41.731a1.586 1.586 0 0 1-.789-1.369V28.879a1.586 1.586 0 0 1 .789-1.369L130.6-14.225a1.586 1.586 0 0 1 1.575 0l72.284 41.735a1.581 1.581 0 0 1 .793 1.369v83.467a1.581 1.581 0 0 1-.793 1.369l-72.284 41.732a1.554 1.554 0 0 1-.789.209zm-70.7-44.22l70.7 40.821 70.706-40.821V29.79l-70.706-40.822L60.687 29.79z" class="cls-3" transform="translate(-57.526 14.434)"/>
            </g>
            <g id="Group_89" transform="translate(1486.537 476.68)">
                <path id="Path_627-13" d="M57.97 27.743v83.467l72.285 41.734 72.284-41.734V27.743L130.255-13.99z" class="cls-1" transform="translate(-56.392 15.568)"/>
                <path id="Path_628-13" d="M131.386 155.656a1.541 1.541 0 0 1-.786-.21l-72.285-41.731a1.586 1.586 0 0 1-.789-1.369V28.879a1.586 1.586 0 0 1 .789-1.369L130.6-14.225a1.586 1.586 0 0 1 1.575 0l72.284 41.735a1.581 1.581 0 0 1 .793 1.369v83.467a1.581 1.581 0 0 1-.793 1.369l-72.284 41.732a1.554 1.554 0 0 1-.789.209zm-70.7-44.22l70.7 40.821 70.706-40.821V29.79l-70.706-40.822L60.687 29.79z" class="cls-3" transform="translate(-57.526 14.434)"/>
            </g>
            <g id="Group_90" transform="translate(1630.537 475.68)">
                <path id="Path_627-14" d="M57.97 27.743v83.467l72.285 41.734 72.284-41.734V27.743L130.255-13.99z" class="cls-1" transform="translate(-56.392 15.568)"/>
                <path id="Path_628-14" d="M131.386 155.656a1.541 1.541 0 0 1-.786-.21l-72.285-41.731a1.586 1.586 0 0 1-.789-1.369V28.879a1.586 1.586 0 0 1 .789-1.369L130.6-14.225a1.586 1.586 0 0 1 1.575 0l72.284 41.735a1.581 1.581 0 0 1 .793 1.369v83.467a1.581 1.581 0 0 1-.793 1.369l-72.284 41.732a1.554 1.554 0 0 1-.789.209zm-70.7-44.22l70.7 40.821 70.706-40.821V29.79l-70.706-40.822L60.687 29.79z" class="cls-3" transform="translate(-57.526 14.434)"/>
            </g>
            <g id="Group_91" transform="translate(1775.537 476.68)">
                <path id="Path_627-15" d="M57.97 27.743v83.467l72.285 41.734 72.284-41.734V27.743L130.255-13.99z" class="cls-1" transform="translate(-56.392 15.568)"/>
                <path id="Path_628-15" d="M131.386 155.656a1.541 1.541 0 0 1-.786-.21l-72.285-41.731a1.586 1.586 0 0 1-.789-1.369V28.879a1.586 1.586 0 0 1 .789-1.369L130.6-14.225a1.586 1.586 0 0 1 1.575 0l72.284 41.735a1.581 1.581 0 0 1 .793 1.369v83.467a1.581 1.581 0 0 1-.793 1.369l-72.284 41.732a1.554 1.554 0 0 1-.789.209zm-70.7-44.22l70.7 40.821 70.706-40.821V29.79l-70.706-40.822L60.687 29.79z" class="cls-8" transform="translate(-57.526 14.434)"/>
            </g>
        </g>
        <g id="Group_95" transform="translate(0 126)">
            <g id="Group_73-2" transform="translate(1123.537 344.68)">
                <path id="Path_627-16" d="M57.97 27.743v83.467l72.285 41.734 72.284-41.734V27.743L130.255-13.99z" class="cls-1" transform="translate(-56.392 15.568)"/>
                <path id="Path_628-16" d="M131.386 155.656a1.541 1.541 0 0 1-.786-.21l-72.285-41.731a1.586 1.586 0 0 1-.789-1.369V28.879a1.586 1.586 0 0 1 .789-1.369L130.6-14.225a1.586 1.586 0 0 1 1.575 0l72.284 41.735a1.581 1.581 0 0 1 .793 1.369v83.467a1.581 1.581 0 0 1-.793 1.369l-72.284 41.732a1.554 1.554 0 0 1-.789.209zm-70.7-44.22l70.7 40.821 70.706-40.821V29.79l-70.706-40.822L60.687 29.79z" class="cls-9" transform="translate(-57.526 14.434)"/>
            </g>
            <g id="Group_74-2" transform="translate(1268.537 343.68)">
                <path id="Path_627-17" d="M57.97 27.743v83.467l72.285 41.734 72.284-41.734V27.743L130.255-13.99z" class="cls-1" transform="translate(-56.392 15.568)"/>
                <path id="Path_628-17" d="M131.386 155.656a1.541 1.541 0 0 1-.786-.21l-72.285-41.731a1.586 1.586 0 0 1-.789-1.369V28.879a1.586 1.586 0 0 1 .789-1.369L130.6-14.225a1.586 1.586 0 0 1 1.575 0l72.284 41.735a1.581 1.581 0 0 1 .793 1.369v83.467a1.581 1.581 0 0 1-.793 1.369l-72.284 41.732a1.554 1.554 0 0 1-.789.209zm-70.7-44.22l70.7 40.821 70.706-40.821V29.79l-70.706-40.822L60.687 29.79z" class="cls-3" transform="translate(-57.526 14.434)"/>
            </g>
            <g id="Group_75-2" transform="translate(1412.537 342.68)">
                <path id="Path_627-18" d="M57.97 27.743v83.467l72.285 41.734 72.284-41.734V27.743L130.255-13.99z" class="cls-1" transform="translate(-56.392 15.568)"/>
                <path id="Path_628-18" d="M131.386 155.656a1.541 1.541 0 0 1-.786-.21l-72.285-41.731a1.586 1.586 0 0 1-.789-1.369V28.879a1.586 1.586 0 0 1 .789-1.369L130.6-14.225a1.586 1.586 0 0 1 1.575 0l72.284 41.735a1.581 1.581 0 0 1 .793 1.369v83.467a1.581 1.581 0 0 1-.793 1.369l-72.284 41.732a1.554 1.554 0 0 1-.789.209zm-70.7-44.22l70.7 40.821 70.706-40.821V29.79l-70.706-40.822L60.687 29.79z" class="cls-3" transform="translate(-57.526 14.434)"/>
            </g>
            <g id="Group_76-2" transform="translate(1556.537 342.68)">
                <path id="Path_627-19" d="M57.97 27.743v83.467l72.285 41.734 72.284-41.734V27.743L130.255-13.99z" class="cls-1" transform="translate(-56.392 15.568)"/>
                <path id="Path_628-19" d="M131.386 155.656a1.541 1.541 0 0 1-.786-.21l-72.285-41.731a1.586 1.586 0 0 1-.789-1.369V28.879a1.586 1.586 0 0 1 .789-1.369L130.6-14.225a1.586 1.586 0 0 1 1.575 0l72.284 41.735a1.581 1.581 0 0 1 .793 1.369v83.467a1.581 1.581 0 0 1-.793 1.369l-72.284 41.732a1.554 1.554 0 0 1-.789.209zm-70.7-44.22l70.7 40.821 70.706-40.821V29.79l-70.706-40.822L60.687 29.79z" class="cls-3" transform="translate(-57.526 14.434)"/>
            </g>
            <g id="Group_77-2" transform="translate(1700.537 342.68)">
                <path id="Path_627-20" d="M57.97 27.743v83.467l72.285 41.734 72.284-41.734V27.743L130.255-13.99z" class="cls-1" transform="translate(-56.392 15.568)"/>
                <path id="Path_628-20" d="M131.386 155.656a1.541 1.541 0 0 1-.786-.21l-72.285-41.731a1.586 1.586 0 0 1-.789-1.369V28.879a1.586 1.586 0 0 1 .789-1.369L130.6-14.225a1.586 1.586 0 0 1 1.575 0l72.284 41.735a1.581 1.581 0 0 1 .793 1.369v83.467a1.581 1.581 0 0 1-.793 1.369l-72.284 41.732a1.554 1.554 0 0 1-.789.209zm-70.7-44.22l70.7 40.821 70.706-40.821V29.79l-70.706-40.822L60.687 29.79z" class="cls-6" transform="translate(-57.526 14.434)"/>
            </g>
        </g>
        <g id="Group_96" transform="translate(0 122)">
            <g id="Group_88-2" transform="translate(1341.537 472.68)">
                <path id="Path_627-21" d="M57.97 27.743v83.467l72.285 41.734 72.284-41.734V27.743L130.255-13.99z" class="cls-1" transform="translate(-56.392 15.568)"/>
                <path id="Path_628-21" d="M131.386 155.656a1.541 1.541 0 0 1-.786-.21l-72.285-41.731a1.586 1.586 0 0 1-.789-1.369V28.879a1.586 1.586 0 0 1 .789-1.369L130.6-14.225a1.586 1.586 0 0 1 1.575 0l72.284 41.735a1.581 1.581 0 0 1 .793 1.369v83.467a1.581 1.581 0 0 1-.793 1.369l-72.284 41.732a1.554 1.554 0 0 1-.789.209zm-70.7-44.22l70.7 40.821 70.706-40.821V29.79l-70.706-40.822L60.687 29.79z" class="cls-3" transform="translate(-57.526 14.434)"/>
            </g>
            <g id="Group_89-2" transform="translate(1483.537 471.68)">
                <path id="Path_627-22" d="M57.97 27.743v83.467l72.285 41.734 72.284-41.734V27.743L130.255-13.99z" class="cls-1" transform="translate(-56.392 15.568)"/>
                <path id="Path_628-22" d="M131.386 155.656a1.541 1.541 0 0 1-.786-.21l-72.285-41.731a1.586 1.586 0 0 1-.789-1.369V28.879a1.586 1.586 0 0 1 .789-1.369L130.6-14.225a1.586 1.586 0 0 1 1.575 0l72.284 41.735a1.581 1.581 0 0 1 .793 1.369v83.467a1.581 1.581 0 0 1-.793 1.369l-72.284 41.732a1.554 1.554 0 0 1-.789.209zm-70.7-44.22l70.7 40.821 70.706-40.821V29.79l-70.706-40.822L60.687 29.79z" class="cls-3" transform="translate(-57.526 14.434)"/>
            </g>
            <g id="Group_90-2" transform="translate(1628.537 471.68)">
                <path id="Path_627-23" d="M57.97 27.743v83.467l72.285 41.734 72.284-41.734V27.743L130.255-13.99z" class="cls-1" transform="translate(-56.392 15.568)"/>
                <path id="Path_628-23" d="M131.386 155.656a1.541 1.541 0 0 1-.786-.21l-72.285-41.731a1.586 1.586 0 0 1-.789-1.369V28.879a1.586 1.586 0 0 1 .789-1.369L130.6-14.225a1.586 1.586 0 0 1 1.575 0l72.284 41.735a1.581 1.581 0 0 1 .793 1.369v83.467a1.581 1.581 0 0 1-.793 1.369l-72.284 41.732a1.554 1.554 0 0 1-.789.209zm-70.7-44.22l70.7 40.821 70.706-40.821V29.79l-70.706-40.822L60.687 29.79z" class="cls-10" transform="translate(-57.526 14.434)"/>
            </g>
        </g>
        <g id="Group_995" transform="translate(-1051 -130)">
            <g id="Group_61-2" transform="translate(1195.537 224.68)">
                <path id="Path_627-24" d="M57.97 27.743v83.467l72.285 41.734 72.284-41.734V27.743L130.255-13.99z" class="cls-1" transform="translate(-56.392 15.568)"/>
                <path id="Path_628-24" d="M131.386 155.656a1.541 1.541 0 0 1-.786-.21l-72.285-41.731a1.586 1.586 0 0 1-.789-1.369V28.879a1.586 1.586 0 0 1 .789-1.369L130.6-14.225a1.586 1.586 0 0 1 1.575 0l72.284 41.735a1.581 1.581 0 0 1 .793 1.369v83.467a1.581 1.581 0 0 1-.793 1.369l-72.284 41.732a1.554 1.554 0 0 1-.789.209zm-70.7-44.22l70.7 40.821 70.706-40.821V29.79l-70.706-40.822L60.687 29.79z" class="cls-2" transform="translate(-57.526 14.434)"/>
            </g>
            <g id="Group_62-2" transform="translate(1339.537 224.68)">
                <path id="Path_627-25" d="M57.97 27.743v83.467l72.285 41.734 72.284-41.734V27.743L130.255-13.99z" class="cls-1" transform="translate(-56.392 15.568)"/>
                <path id="Path_628-25" d="M131.386 155.656a1.541 1.541 0 0 1-.786-.21l-72.285-41.731a1.586 1.586 0 0 1-.789-1.369V28.879a1.586 1.586 0 0 1 .789-1.369L130.6-14.225a1.586 1.586 0 0 1 1.575 0l72.284 41.735a1.581 1.581 0 0 1 .793 1.369v83.467a1.581 1.581 0 0 1-.793 1.369l-72.284 41.732a1.554 1.554 0 0 1-.789.209zm-70.7-44.22l70.7 40.821 70.706-40.821V29.79l-70.706-40.822L60.687 29.79z" class="cls-3" transform="translate(-57.526 14.434)"/>
            </g>
            <g id="Group_63-2" transform="translate(1483.537 224.68)">
                <path id="Path_627-26" d="M57.97 27.743v83.467l72.285 41.734 72.284-41.734V27.743L130.255-13.99z" class="cls-1" transform="translate(-56.392 15.568)"/>
                <path id="Path_628-26" d="M131.386 155.656a1.541 1.541 0 0 1-.786-.21l-72.285-41.731a1.586 1.586 0 0 1-.789-1.369V28.879a1.586 1.586 0 0 1 .789-1.369L130.6-14.225a1.586 1.586 0 0 1 1.575 0l72.284 41.735a1.581 1.581 0 0 1 .793 1.369v83.467a1.581 1.581 0 0 1-.793 1.369l-72.284 41.732a1.554 1.554 0 0 1-.789.209zm-70.7-44.22l70.7 40.821 70.706-40.821V29.79l-70.706-40.822L60.687 29.79z" class="cls-3" transform="translate(-57.526 14.434)"/>
            </g>
            <g id="Group_64-2" transform="translate(1627.537 224.68)">
                <path id="Path_627-27" d="M57.97 27.743v83.467l72.285 41.734 72.284-41.734V27.743L130.255-13.99z" class="cls-1" transform="translate(-56.392 15.568)"/>
                <path id="Path_628-27" d="M131.386 155.656a1.541 1.541 0 0 1-.786-.21l-72.285-41.731a1.586 1.586 0 0 1-.789-1.369V28.879a1.586 1.586 0 0 1 .789-1.369L130.6-14.225a1.586 1.586 0 0 1 1.575 0l72.284 41.735a1.581 1.581 0 0 1 .793 1.369v83.467a1.581 1.581 0 0 1-.793 1.369l-72.284 41.732a1.554 1.554 0 0 1-.789.209zm-70.7-44.22l70.7 40.821 70.706-40.821V29.79l-70.706-40.822L60.687 29.79z" class="cls-4" transform="translate(-57.526 14.434)"/>
            </g>
        </g>
        <g id="Group_996" transform="translate(-1051 -130)">
            <g id="Group_73-3" transform="translate(1123.537 349.68)">
                <path id="Path_627-28" d="M57.97 27.743v83.467l72.285 41.734 72.284-41.734V27.743L130.255-13.99z" class="cls-1" transform="translate(-56.392 15.568)"/>
                <path id="Path_628-28" d="M131.386 155.656a1.541 1.541 0 0 1-.786-.21l-72.285-41.731a1.586 1.586 0 0 1-.789-1.369V28.879a1.586 1.586 0 0 1 .789-1.369L130.6-14.225a1.586 1.586 0 0 1 1.575 0l72.284 41.735a1.581 1.581 0 0 1 .793 1.369v83.467a1.581 1.581 0 0 1-.793 1.369l-72.284 41.732a1.554 1.554 0 0 1-.789.209zm-70.7-44.22l70.7 40.821 70.706-40.821V29.79l-70.706-40.822L60.687 29.79z" class="cls-5" transform="translate(-57.526 14.434)"/>
            </g>
            <g id="Group_74-3" transform="translate(1267.537 349.68)">
                <path id="Path_627-29" d="M57.97 27.743v83.467l72.285 41.734 72.284-41.734V27.743L130.255-13.99z" class="cls-1" transform="translate(-56.392 15.568)"/>
                <path id="Path_628-29" d="M131.386 155.656a1.541 1.541 0 0 1-.786-.21l-72.285-41.731a1.586 1.586 0 0 1-.789-1.369V28.879a1.586 1.586 0 0 1 .789-1.369L130.6-14.225a1.586 1.586 0 0 1 1.575 0l72.284 41.735a1.581 1.581 0 0 1 .793 1.369v83.467a1.581 1.581 0 0 1-.793 1.369l-72.284 41.732a1.554 1.554 0 0 1-.789.209zm-70.7-44.22l70.7 40.821 70.706-40.821V29.79l-70.706-40.822L60.687 29.79z" class="cls-3" transform="translate(-57.526 14.434)"/>
            </g>
            <g id="Group_75-3" transform="translate(1411.537 349.68)">
                <path id="Path_627-30" d="M57.97 27.743v83.467l72.285 41.734 72.284-41.734V27.743L130.255-13.99z" class="cls-1" transform="translate(-56.392 15.568)"/>
                <path id="Path_628-30" d="M131.386 155.656a1.541 1.541 0 0 1-.786-.21l-72.285-41.731a1.586 1.586 0 0 1-.789-1.369V28.879a1.586 1.586 0 0 1 .789-1.369L130.6-14.225a1.586 1.586 0 0 1 1.575 0l72.284 41.735a1.581 1.581 0 0 1 .793 1.369v83.467a1.581 1.581 0 0 1-.793 1.369l-72.284 41.732a1.554 1.554 0 0 1-.789.209zm-70.7-44.22l70.7 40.821 70.706-40.821V29.79l-70.706-40.822L60.687 29.79z" class="cls-3" transform="translate(-57.526 14.434)"/>
            </g>
            <g id="Group_76-3" transform="translate(1555.537 349.68)">
                <path id="Path_627-31" d="M57.97 27.743v83.467l72.285 41.734 72.284-41.734V27.743L130.255-13.99z" class="cls-1" transform="translate(-56.392 15.568)"/>
                <path id="Path_628-31" d="M131.386 155.656a1.541 1.541 0 0 1-.786-.21l-72.285-41.731a1.586 1.586 0 0 1-.789-1.369V28.879a1.586 1.586 0 0 1 .789-1.369L130.6-14.225a1.586 1.586 0 0 1 1.575 0l72.284 41.735a1.581 1.581 0 0 1 .793 1.369v83.467a1.581 1.581 0 0 1-.793 1.369l-72.284 41.732a1.554 1.554 0 0 1-.789.209zm-70.7-44.22l70.7 40.821 70.706-40.821V29.79l-70.706-40.822L60.687 29.79z" class="cls-3" transform="translate(-57.526 14.434)"/>
            </g>
            <g id="Group_77-3" transform="translate(1701.537 349.68)">
                <path id="Path_627-32" d="M57.97 27.743v83.467l72.285 41.734 72.284-41.734V27.743L130.255-13.99z" class="cls-1" transform="translate(-56.392 15.568)"/>
                <path id="Path_628-32" d="M131.386 155.656a1.541 1.541 0 0 1-.786-.21l-72.285-41.731a1.586 1.586 0 0 1-.789-1.369V28.879a1.586 1.586 0 0 1 .789-1.369L130.6-14.225a1.586 1.586 0 0 1 1.575 0l72.284 41.735a1.581 1.581 0 0 1 .793 1.369v83.467a1.581 1.581 0 0 1-.793 1.369l-72.284 41.732a1.554 1.554 0 0 1-.789.209zm-70.7-44.22l70.7 40.821 70.706-40.821V29.79l-70.706-40.822L60.687 29.79z" class="cls-6" transform="translate(-57.526 14.434)"/>
            </g>
        </g>
        <g id="Group_997" transform="translate(-1053 -132)">
            <g id="Group_86-2" transform="translate(1053.537 477.68)">
                <path id="Path_627-33" d="M57.97 27.743v83.467l72.285 41.734 72.284-41.734V27.743L130.255-13.99z" class="cls-1" transform="translate(-56.392 15.568)"/>
                <path id="Path_628-33" d="M131.386 155.656a1.541 1.541 0 0 1-.786-.21l-72.285-41.731a1.586 1.586 0 0 1-.789-1.369V28.879a1.586 1.586 0 0 1 .789-1.369L130.6-14.225a1.586 1.586 0 0 1 1.575 0l72.284 41.735a1.581 1.581 0 0 1 .793 1.369v83.467a1.581 1.581 0 0 1-.793 1.369l-72.284 41.732a1.554 1.554 0 0 1-.789.209zm-70.7-44.22l70.7 40.821 70.706-40.821V29.79l-70.706-40.822L60.687 29.79z" class="cls-7" transform="translate(-57.526 14.434)"/>
            </g>
            <g id="Group_87-2" transform="translate(1197.537 477.68)">
                <path id="Path_627-34" d="M57.97 27.743v83.467l72.285 41.734 72.284-41.734V27.743L130.255-13.99z" class="cls-1" transform="translate(-56.392 15.568)"/>
                <path id="Path_628-34" d="M131.386 155.656a1.541 1.541 0 0 1-.786-.21l-72.285-41.731a1.586 1.586 0 0 1-.789-1.369V28.879a1.586 1.586 0 0 1 .789-1.369L130.6-14.225a1.586 1.586 0 0 1 1.575 0l72.284 41.735a1.581 1.581 0 0 1 .793 1.369v83.467a1.581 1.581 0 0 1-.793 1.369l-72.284 41.732a1.554 1.554 0 0 1-.789.209zm-70.7-44.22l70.7 40.821 70.706-40.821V29.79l-70.706-40.822L60.687 29.79z" class="cls-3" transform="translate(-57.526 14.434)"/>
            </g>
            <g id="Group_88-3" transform="translate(1342.537 476.68)">
                <path id="Path_627-35" d="M57.97 27.743v83.467l72.285 41.734 72.284-41.734V27.743L130.255-13.99z" class="cls-1" transform="translate(-56.392 15.568)"/>
                <path id="Path_628-35" d="M131.386 155.656a1.541 1.541 0 0 1-.786-.21l-72.285-41.731a1.586 1.586 0 0 1-.789-1.369V28.879a1.586 1.586 0 0 1 .789-1.369L130.6-14.225a1.586 1.586 0 0 1 1.575 0l72.284 41.735a1.581 1.581 0 0 1 .793 1.369v83.467a1.581 1.581 0 0 1-.793 1.369l-72.284 41.732a1.554 1.554 0 0 1-.789.209zm-70.7-44.22l70.7 40.821 70.706-40.821V29.79l-70.706-40.822L60.687 29.79z" class="cls-3" transform="translate(-57.526 14.434)"/>
            </g>
            <g id="Group_89-3" transform="translate(1486.537 476.68)">
                <path id="Path_627-36" d="M57.97 27.743v83.467l72.285 41.734 72.284-41.734V27.743L130.255-13.99z" class="cls-1" transform="translate(-56.392 15.568)"/>
                <path id="Path_628-36" d="M131.386 155.656a1.541 1.541 0 0 1-.786-.21l-72.285-41.731a1.586 1.586 0 0 1-.789-1.369V28.879a1.586 1.586 0 0 1 .789-1.369L130.6-14.225a1.586 1.586 0 0 1 1.575 0l72.284 41.735a1.581 1.581 0 0 1 .793 1.369v83.467a1.581 1.581 0 0 1-.793 1.369l-72.284 41.732a1.554 1.554 0 0 1-.789.209zm-70.7-44.22l70.7 40.821 70.706-40.821V29.79l-70.706-40.822L60.687 29.79z" class="cls-3" transform="translate(-57.526 14.434)"/>
            </g>
            <g id="Group_90-3" transform="translate(1630.537 475.68)">
                <path id="Path_627-37" d="M57.97 27.743v83.467l72.285 41.734 72.284-41.734V27.743L130.255-13.99z" class="cls-1" transform="translate(-56.392 15.568)"/>
                <path id="Path_628-37" d="M131.386 155.656a1.541 1.541 0 0 1-.786-.21l-72.285-41.731a1.586 1.586 0 0 1-.789-1.369V28.879a1.586 1.586 0 0 1 .789-1.369L130.6-14.225a1.586 1.586 0 0 1 1.575 0l72.284 41.735a1.581 1.581 0 0 1 .793 1.369v83.467a1.581 1.581 0 0 1-.793 1.369l-72.284 41.732a1.554 1.554 0 0 1-.789.209zm-70.7-44.22l70.7 40.821 70.706-40.821V29.79l-70.706-40.822L60.687 29.79z" class="cls-3" transform="translate(-57.526 14.434)"/>
            </g>
            <g id="Group_91-2" transform="translate(1775.537 476.68)">
                <path id="Path_627-38" d="M57.97 27.743v83.467l72.285 41.734 72.284-41.734V27.743L130.255-13.99z" class="cls-1" transform="translate(-56.392 15.568)"/>
                <path id="Path_628-38" d="M131.386 155.656a1.541 1.541 0 0 1-.786-.21l-72.285-41.731a1.586 1.586 0 0 1-.789-1.369V28.879a1.586 1.586 0 0 1 .789-1.369L130.6-14.225a1.586 1.586 0 0 1 1.575 0l72.284 41.735a1.581 1.581 0 0 1 .793 1.369v83.467a1.581 1.581 0 0 1-.793 1.369l-72.284 41.732a1.554 1.554 0 0 1-.789.209zm-70.7-44.22l70.7 40.821 70.706-40.821V29.79l-70.706-40.822L60.687 29.79z" class="cls-8" transform="translate(-57.526 14.434)"/>
            </g>
        </g>
        <g id="Group_998" transform="translate(-1051 126)">
            <g id="Group_73-4" transform="translate(1123.537 344.68)">
                <path id="Path_627-39" d="M57.97 27.743v83.467l72.285 41.734 72.284-41.734V27.743L130.255-13.99z" class="cls-1" transform="translate(-56.392 15.568)"/>
                <path id="Path_628-39" d="M131.386 155.656a1.541 1.541 0 0 1-.786-.21l-72.285-41.731a1.586 1.586 0 0 1-.789-1.369V28.879a1.586 1.586 0 0 1 .789-1.369L130.6-14.225a1.586 1.586 0 0 1 1.575 0l72.284 41.735a1.581 1.581 0 0 1 .793 1.369v83.467a1.581 1.581 0 0 1-.793 1.369l-72.284 41.732a1.554 1.554 0 0 1-.789.209zm-70.7-44.22l70.7 40.821 70.706-40.821V29.79l-70.706-40.822L60.687 29.79z" class="cls-9" transform="translate(-57.526 14.434)"/>
            </g>
            <g id="Group_74-4" transform="translate(1268.537 343.68)">
                <path id="Path_627-40" d="M57.97 27.743v83.467l72.285 41.734 72.284-41.734V27.743L130.255-13.99z" class="cls-1" transform="translate(-56.392 15.568)"/>
                <path id="Path_628-40" d="M131.386 155.656a1.541 1.541 0 0 1-.786-.21l-72.285-41.731a1.586 1.586 0 0 1-.789-1.369V28.879a1.586 1.586 0 0 1 .789-1.369L130.6-14.225a1.586 1.586 0 0 1 1.575 0l72.284 41.735a1.581 1.581 0 0 1 .793 1.369v83.467a1.581 1.581 0 0 1-.793 1.369l-72.284 41.732a1.554 1.554 0 0 1-.789.209zm-70.7-44.22l70.7 40.821 70.706-40.821V29.79l-70.706-40.822L60.687 29.79z" class="cls-3" transform="translate(-57.526 14.434)"/>
            </g>
            <g id="Group_75-4" transform="translate(1412.537 342.68)">
                <path id="Path_627-41" d="M57.97 27.743v83.467l72.285 41.734 72.284-41.734V27.743L130.255-13.99z" class="cls-1" transform="translate(-56.392 15.568)"/>
                <path id="Path_628-41" d="M131.386 155.656a1.541 1.541 0 0 1-.786-.21l-72.285-41.731a1.586 1.586 0 0 1-.789-1.369V28.879a1.586 1.586 0 0 1 .789-1.369L130.6-14.225a1.586 1.586 0 0 1 1.575 0l72.284 41.735a1.581 1.581 0 0 1 .793 1.369v83.467a1.581 1.581 0 0 1-.793 1.369l-72.284 41.732a1.554 1.554 0 0 1-.789.209zm-70.7-44.22l70.7 40.821 70.706-40.821V29.79l-70.706-40.822L60.687 29.79z" class="cls-3" transform="translate(-57.526 14.434)"/>
            </g>
            <g id="Group_76-4" transform="translate(1556.537 342.68)">
                <path id="Path_627-42" d="M57.97 27.743v83.467l72.285 41.734 72.284-41.734V27.743L130.255-13.99z" class="cls-1" transform="translate(-56.392 15.568)"/>
                <path id="Path_628-42" d="M131.386 155.656a1.541 1.541 0 0 1-.786-.21l-72.285-41.731a1.586 1.586 0 0 1-.789-1.369V28.879a1.586 1.586 0 0 1 .789-1.369L130.6-14.225a1.586 1.586 0 0 1 1.575 0l72.284 41.735a1.581 1.581 0 0 1 .793 1.369v83.467a1.581 1.581 0 0 1-.793 1.369l-72.284 41.732a1.554 1.554 0 0 1-.789.209zm-70.7-44.22l70.7 40.821 70.706-40.821V29.79l-70.706-40.822L60.687 29.79z" class="cls-3" transform="translate(-57.526 14.434)"/>
            </g>
            <g id="Group_77-4" transform="translate(1700.537 342.68)">
                <path id="Path_627-43" d="M57.97 27.743v83.467l72.285 41.734 72.284-41.734V27.743L130.255-13.99z" class="cls-1" transform="translate(-56.392 15.568)"/>
                <path id="Path_628-43" d="M131.386 155.656a1.541 1.541 0 0 1-.786-.21l-72.285-41.731a1.586 1.586 0 0 1-.789-1.369V28.879a1.586 1.586 0 0 1 .789-1.369L130.6-14.225a1.586 1.586 0 0 1 1.575 0l72.284 41.735a1.581 1.581 0 0 1 .793 1.369v83.467a1.581 1.581 0 0 1-.793 1.369l-72.284 41.732a1.554 1.554 0 0 1-.789.209zm-70.7-44.22l70.7 40.821 70.706-40.821V29.79l-70.706-40.822L60.687 29.79z" class="cls-6" transform="translate(-57.526 14.434)"/>
            </g>
        </g>
        <g id="Group_1001" transform="translate(577.537 593.68)">
            <path id="Path_627-44" d="M57.97 27.743v83.467l72.285 41.734 72.284-41.734V27.743L130.255-13.99z" class="cls-1" transform="translate(-56.392 15.568)"/>
            <path id="Path_628-44" d="M131.386 155.656a1.541 1.541 0 0 1-.786-.21l-72.285-41.731a1.586 1.586 0 0 1-.789-1.369V28.879a1.586 1.586 0 0 1 .789-1.369L130.6-14.225a1.586 1.586 0 0 1 1.575 0l72.284 41.735a1.581 1.581 0 0 1 .793 1.369v83.467a1.581 1.581 0 0 1-.793 1.369l-72.284 41.732a1.554 1.554 0 0 1-.789.209zm-70.7-44.22l70.7 40.821 70.706-40.821V29.79l-70.706-40.822L60.687 29.79z" class="cls-10" transform="translate(-57.526 14.434)"/>
        </g>
        <g id="Group_999" transform="translate(290.537 594.68)">
            <path id="Path_627-45" d="M57.97 27.743v83.467l72.285 41.734 72.284-41.734V27.743L130.255-13.99z" class="cls-1" transform="translate(-56.392 15.568)"/>
            <path id="Path_628-45" d="M131.386 155.656a1.541 1.541 0 0 1-.786-.21l-72.285-41.731a1.586 1.586 0 0 1-.789-1.369V28.879a1.586 1.586 0 0 1 .789-1.369L130.6-14.225a1.586 1.586 0 0 1 1.575 0l72.284 41.735a1.581 1.581 0 0 1 .793 1.369v83.467a1.581 1.581 0 0 1-.793 1.369l-72.284 41.732a1.554 1.554 0 0 1-.789.209zm-70.7-44.22l70.7 40.821 70.706-40.821V29.79l-70.706-40.822L60.687 29.79z" class="cls-3" transform="translate(-57.526 14.434)"/>
        </g>
        <g id="Group_1000" transform="translate(432.537 593.68)">
            <path id="Path_627-46" d="M57.97 27.743v83.467l72.285 41.734 72.284-41.734V27.743L130.255-13.99z" class="cls-1" transform="translate(-56.392 15.568)"/>
            <path id="Path_628-46" d="M131.386 155.656a1.541 1.541 0 0 1-.786-.21l-72.285-41.731a1.586 1.586 0 0 1-.789-1.369V28.879a1.586 1.586 0 0 1 .789-1.369L130.6-14.225a1.586 1.586 0 0 1 1.575 0l72.284 41.735a1.581 1.581 0 0 1 .793 1.369v83.467a1.581 1.581 0 0 1-.793 1.369l-72.284 41.732a1.554 1.554 0 0 1-.789.209zm-70.7-44.22l70.7 40.821 70.706-40.821V29.79l-70.706-40.822L60.687 29.79z" class="cls-3" transform="translate(-57.526 14.434)"/>
        </g>
    </g>
</svg>
