<svg width="32" height="32" viewBox="0 0 32 32" fill="none" xmlns="http://www.w3.org/2000/svg">
<path d="M19.2398 25.0934C18.9865 25.0934 18.7332 25 18.5332 24.8C18.1465 24.4134 18.1465 23.7734 18.5332 23.3867L25.9198 16L18.5332 8.61338C18.1465 8.22671 18.1465 7.58671 18.5332 7.20004C18.9198 6.81338 19.5598 6.81338 19.9465 7.20004L28.0398 15.2934C28.4265 15.68 28.4265 16.32 28.0398 16.7067L19.9465 24.8C19.7465 25 19.4932 25.0934 19.2398 25.0934Z" fill="#808080"/>
<path d="M27.1067 17H4.66675C4.12008 17 3.66675 16.5467 3.66675 16C3.66675 15.4533 4.12008 15 4.66675 15H27.1067C27.6534 15 28.1067 15.4533 28.1067 16C28.1067 16.5467 27.6534 17 27.1067 17Z" fill="#808080"/>
</svg>
