<svg width="72" height="72" viewBox="0 0 72 72" fill="none" xmlns="http://www.w3.org/2000/svg">
<path d="M26.9995 32.25C22.4395 32.25 18.7495 28.56 18.7495 24C18.7495 19.44 22.4395 15.75 26.9995 15.75C31.5595 15.75 35.2495 19.44 35.2495 24C35.2495 28.56 31.5595 32.25 26.9995 32.25ZM26.9995 20.25C24.9295 20.25 23.2495 21.93 23.2495 24C23.2495 26.07 24.9295 27.75 26.9995 27.75C29.0695 27.75 30.7495 26.07 30.7495 24C30.7495 21.93 29.0695 20.25 26.9995 20.25Z" fill="#808080"/>
<path d="M45.0005 68.2502H27.0005C10.7105 68.2502 3.75049 61.2902 3.75049 45.0002V27.0002C3.75049 10.7102 10.7105 3.75015 27.0005 3.75015H39.0005C40.2305 3.75015 41.2505 4.77015 41.2505 6.00015C41.2505 7.23015 40.2305 8.25015 39.0005 8.25015H27.0005C13.1705 8.25015 8.25049 13.1702 8.25049 27.0002V45.0002C8.25049 58.8302 13.1705 63.7502 27.0005 63.7502H45.0005C58.8305 63.7502 63.7505 58.8302 63.7505 45.0002V30.0002C63.7505 28.7702 64.7705 27.7502 66.0005 27.7502C67.2305 27.7502 68.2505 28.7702 68.2505 30.0002V45.0002C68.2505 61.2902 61.2905 68.2502 45.0005 68.2502Z" fill="#808080"/>
<path d="M63.75 17.2502H47.25C46.02 17.2502 45 16.2302 45 15.0002C45 13.7702 46.02 12.7502 47.25 12.7502H63.75C64.98 12.7502 66 13.7702 66 15.0002C66 16.2302 64.98 17.2502 63.75 17.2502Z" fill="#808080"/>
<path d="M55.5005 25.5C54.2705 25.5 53.2505 24.48 53.2505 23.25V6.75C53.2505 5.52 54.2705 4.5 55.5005 4.5C56.7305 4.5 57.7505 5.52 57.7505 6.75V23.25C57.7505 24.48 56.7305 25.5 55.5005 25.5Z" fill="#808080"/>
<path d="M8.00868 59.1003C7.28868 59.1003 6.56868 58.7403 6.14868 58.1103C5.45868 57.0903 5.72868 55.6803 6.74868 54.9903L21.5387 45.0603C24.7787 42.9003 29.2487 43.1403 32.1887 45.6303L33.1787 46.5003C34.6787 47.7903 37.2287 47.7903 38.6987 46.5003L51.1787 35.7903C54.3887 33.0603 59.3687 33.0603 62.5787 35.7903L67.4687 39.9903C68.3987 40.8003 68.5187 42.2103 67.7087 43.1703C66.8987 44.1003 65.4887 44.2203 64.5287 43.4103L59.6387 39.2103C58.1387 37.9203 55.5887 37.9203 54.1187 39.2103L41.6387 49.9203C38.4587 52.6503 33.4487 52.6503 30.2387 49.9203L29.2487 49.0503C27.8687 47.8803 25.5887 47.7603 24.0587 48.8103L9.29868 58.7403C8.87868 58.9803 8.42868 59.1003 8.00868 59.1003Z" fill="#808080"/>
</svg>
