<svg width="40" height="40" viewBox="0 0 40 40" fill="none" xmlns="http://www.w3.org/2000/svg">
<path d="M26.9833 3.33337H13.0166C6.94998 3.33337 3.33331 6.95004 3.33331 13.0167V26.9667C3.33331 33.05 6.94998 36.6667 13.0166 36.6667H26.9666C33.0333 36.6667 36.65 33.05 36.65 26.9834V13.0167C36.6666 6.95004 33.05 3.33337 26.9833 3.33337ZM27.9666 16.1667L18.5166 25.6167C18.2833 25.85 17.9666 25.9834 17.6333 25.9834C17.3 25.9834 16.9833 25.85 16.75 25.6167L12.0333 20.9C11.55 20.4167 11.55 19.6167 12.0333 19.1334C12.5166 18.65 13.3166 18.65 13.8 19.1334L17.6333 22.9667L26.2 14.4C26.6833 13.9167 27.4833 13.9167 27.9666 14.4C28.45 14.8834 28.45 15.6667 27.9666 16.1667Z" fill="#2082DB"/>
</svg>
