<svg width="24" height="24" viewBox="0 0 24 24" fill="none" xmlns="http://www.w3.org/2000/svg">
<path d="M11.05 14.95L9.2 16.8C8.81 17.19 8.19 17.19 7.79 16.81C7.68 16.7 7.57 16.6 7.46 16.49C6.43 15.45 5.5 14.36 4.67 13.22C3.85 12.08 3.19 10.94 2.71 9.81C2.24 8.67 2 7.58 2 6.54C2 5.86 2.12 5.21 2.36 4.61C2.6 4 2.98 3.44 3.51 2.94C4.15 2.31 4.85 2 5.59 2C5.87 2 6.15 2.06 6.4 2.18C6.66 2.3 6.89 2.48 7.07 2.74L9.39 6.01C9.57 6.26 9.7 6.49 9.79 6.71C9.88 6.92 9.93 7.13 9.93 7.32C9.93 7.56 9.86 7.8 9.72 8.03C9.59 8.26 9.4 8.5 9.16 8.74L8.4 9.53C8.29 9.64 8.24 9.77 8.24 9.93C8.24 10.01 8.25 10.08 8.27 10.16C8.3 10.24 8.33 10.3 8.35 10.36C8.53 10.69 8.84 11.12 9.28 11.64C9.73 12.16 10.21 12.69 10.73 13.22C10.83 13.32 10.94 13.42 11.04 13.52C11.44 13.91 11.45 14.55 11.05 14.95Z" fill="#151515"/>
<path d="M21.9699 18.33C21.9699 18.61 21.9199 18.9 21.8199 19.18C21.7899 19.26 21.7599 19.34 21.7199 19.42C21.5499 19.78 21.3299 20.12 21.0399 20.44C20.5499 20.98 20.0099 21.37 19.3999 21.62C19.3899 21.62 19.3799 21.63 19.3699 21.63C18.7799 21.87 18.1399 22 17.4499 22C16.4299 22 15.3399 21.76 14.1899 21.27C13.0399 20.78 11.8899 20.12 10.7499 19.29C10.3599 19 9.96995 18.71 9.59995 18.4L12.8699 15.13C13.1499 15.34 13.3999 15.5 13.6099 15.61C13.6599 15.63 13.7199 15.66 13.7899 15.69C13.8699 15.72 13.9499 15.73 14.0399 15.73C14.2099 15.73 14.3399 15.67 14.4499 15.56L15.2099 14.81C15.4599 14.56 15.6999 14.37 15.9299 14.25C16.1599 14.11 16.3899 14.04 16.6399 14.04C16.8299 14.04 17.0299 14.08 17.2499 14.17C17.4699 14.26 17.6999 14.39 17.9499 14.56L21.2599 16.91C21.5199 17.09 21.6999 17.3 21.8099 17.55C21.9099 17.8 21.9699 18.05 21.9699 18.33Z" fill="#151515"/>
</svg>
