<svg width="25" height="24" viewBox="0 0 25 24" fill="none" xmlns="http://www.w3.org/2000/svg">
<path d="M22.5 9.25024H2.5C2.09 9.25024 1.75 8.91024 1.75 8.50024C1.75 8.09024 2.09 7.75024 2.5 7.75024H22.5C22.91 7.75024 23.25 8.09024 23.25 8.50024C23.25 8.91024 22.91 9.25024 22.5 9.25024Z" fill="#666666"/>
<path d="M8.5 17.2502H6.5C6.09 17.2502 5.75 16.9102 5.75 16.5002C5.75 16.0902 6.09 15.7502 6.5 15.7502H8.5C8.91 15.7502 9.25 16.0902 9.25 16.5002C9.25 16.9102 8.91 17.2502 8.5 17.2502Z" fill="#666666"/>
<path d="M15 17.2502H11C10.59 17.2502 10.25 16.9102 10.25 16.5002C10.25 16.0902 10.59 15.7502 11 15.7502H15C15.41 15.7502 15.75 16.0902 15.75 16.5002C15.75 16.9102 15.41 17.2502 15 17.2502Z" fill="#808080"/>
<path d="M18.06 21.2502H6.94C2.96 21.2502 1.75 20.0502 1.75 16.1102V7.89024C1.75 3.95024 2.96 2.75024 6.94 2.75024H18.05C22.03 2.75024 23.24 3.95024 23.24 7.89024V16.1002C23.25 20.0502 22.04 21.2502 18.06 21.2502ZM6.94 4.25024C3.8 4.25024 3.25 4.79024 3.25 7.89024V16.1002C3.25 19.2002 3.8 19.7402 6.94 19.7402H18.05C21.19 19.7402 21.74 19.2002 21.74 16.1002V7.89024C21.74 4.79024 21.19 4.25024 18.05 4.25024H6.94Z" fill="#808080"/>
</svg>
