<svg width="40" height="40" viewBox="0 0 40 40" fill="none" xmlns="http://www.w3.org/2000/svg">
<path d="M25 37.9167H15C5.94998 37.9167 2.08331 34.05 2.08331 25V15C2.08331 5.95001 5.94998 2.08334 15 2.08334H25C34.05 2.08334 37.9166 5.95001 37.9166 15V25C37.9166 34.05 34.05 37.9167 25 37.9167ZM15 4.58334C7.31665 4.58334 4.58331 7.31668 4.58331 15V25C4.58331 32.6833 7.31665 35.4167 15 35.4167H25C32.6833 35.4167 35.4166 32.6833 35.4166 25V15C35.4166 7.31668 32.6833 4.58334 25 4.58334H15Z" fill="#8EC1EE"/>
<path d="M17.6333 25.9666C17.2999 25.9666 16.9833 25.8333 16.7499 25.6L12.0333 20.8833C11.5499 20.4 11.5499 19.6 12.0333 19.1166C12.5166 18.6333 13.3166 18.6333 13.7999 19.1166L17.6333 22.95L26.1999 14.3833C26.6833 13.9 27.4833 13.9 27.9666 14.3833C28.4499 14.8666 28.4499 15.6666 27.9666 16.15L18.5166 25.6C18.2833 25.8333 17.9666 25.9666 17.6333 25.9666Z" fill="#8EC1EE"/>
</svg>
