<svg width="16" height="16" viewBox="0 0 16 16" fill="none" xmlns="http://www.w3.org/2000/svg">
<path d="M5.33325 3.83337C5.05992 3.83337 4.83325 3.60671 4.83325 3.33337V1.33337C4.83325 1.06004 5.05992 0.833374 5.33325 0.833374C5.60659 0.833374 5.83325 1.06004 5.83325 1.33337V3.33337C5.83325 3.60671 5.60659 3.83337 5.33325 3.83337Z" fill="#AAAAAA"/>
<path d="M10.6667 3.83337C10.3934 3.83337 10.1667 3.60671 10.1667 3.33337V1.33337C10.1667 1.06004 10.3934 0.833374 10.6667 0.833374C10.9401 0.833374 11.1667 1.06004 11.1667 1.33337V3.33337C11.1667 3.60671 10.9401 3.83337 10.6667 3.83337Z" fill="#AAAAAA"/>
<path d="M12.1333 14.7667C10.68 14.7667 9.5 13.5867 9.5 12.1333C9.5 10.68 10.68 9.5 12.1333 9.5C13.5867 9.5 14.7667 10.68 14.7667 12.1333C14.7667 13.5867 13.5867 14.7667 12.1333 14.7667ZM12.1333 10.5C11.2333 10.5 10.5 11.2333 10.5 12.1333C10.5 13.0333 11.2333 13.7667 12.1333 13.7667C13.0333 13.7667 13.7667 13.0333 13.7667 12.1333C13.7667 11.2333 13.0333 10.5 12.1333 10.5Z" fill="#AAAAAA"/>
<path d="M14.6667 15.1667C14.54 15.1667 14.4134 15.12 14.3134 15.02L13.6467 14.3534C13.4534 14.16 13.4534 13.84 13.6467 13.6467C13.84 13.4534 14.16 13.4534 14.3534 13.6467L15.02 14.3134C15.2134 14.5067 15.2134 14.8267 15.02 15.02C14.92 15.12 14.7934 15.1667 14.6667 15.1667Z" fill="#AAAAAA"/>
<path d="M5.66667 9.6667C5.58 9.6667 5.49333 9.64671 5.41333 9.61338C5.32666 9.58005 5.25333 9.53337 5.19333 9.47337C5.16666 9.44003 5.13333 9.4067 5.11333 9.37337C5.08667 9.33337 5.06667 9.29337 5.05333 9.25337C5.03333 9.21337 5.02 9.17338 5.01334 9.13338C5.00667 9.08671 5 9.04004 5 9.00004C5 8.8267 5.07333 8.65338 5.19333 8.52671C5.25333 8.46671 5.32666 8.42003 5.41333 8.3867C5.65333 8.28003 5.95334 8.34004 6.14 8.52671C6.26 8.65338 6.33333 8.8267 6.33333 9.00004C6.33333 9.04004 6.32666 9.08671 6.32 9.13338C6.31333 9.17338 6.3 9.21337 6.28 9.25337C6.26667 9.29337 6.24667 9.33337 6.22 9.37337C6.19333 9.4067 6.16667 9.44003 6.14 9.47337C6.01334 9.59337 5.84 9.6667 5.66667 9.6667Z" fill="#AAAAAA"/>
<path d="M7.99992 9.66655C7.82659 9.66655 7.65325 9.59321 7.52658 9.47321C7.40658 9.34654 7.33325 9.17988 7.33325 8.99988C7.33325 8.91321 7.35325 8.82654 7.38659 8.74654C7.41992 8.66654 7.46658 8.59322 7.52658 8.52655C7.77325 8.27989 8.21992 8.27989 8.47326 8.52655C8.59326 8.65322 8.66659 8.82655 8.66659 8.99988C8.66659 9.03988 8.65992 9.08656 8.65325 9.13322C8.64658 9.17322 8.63325 9.21322 8.61325 9.25322C8.59992 9.29322 8.57992 9.33321 8.55325 9.37321C8.52659 9.40655 8.49992 9.43987 8.47326 9.47321C8.34659 9.59321 8.17325 9.66655 7.99992 9.66655Z" fill="#AAAAAA"/>
<path d="M5.66667 11.9999C5.49333 11.9999 5.32 11.9266 5.19333 11.8066C5.07333 11.6799 5 11.5066 5 11.3333C5 11.2466 5.02 11.1599 5.05333 11.0799C5.08667 10.9933 5.13333 10.9199 5.19333 10.8599C5.44 10.6133 5.89334 10.6133 6.14 10.8599C6.26 10.9866 6.33333 11.1599 6.33333 11.3333C6.33333 11.5066 6.26 11.6799 6.14 11.8066C6.01334 11.9266 5.84 11.9999 5.66667 11.9999Z" fill="#AAAAAA"/>
<path d="M13.6666 6.56006H2.33325C2.05992 6.56006 1.83325 6.33339 1.83325 6.06006C1.83325 5.78673 2.05992 5.56006 2.33325 5.56006H13.6666C13.9399 5.56006 14.1666 5.78673 14.1666 6.06006C14.1666 6.33339 13.9399 6.56006 13.6666 6.56006Z" fill="#AAAAAA"/>
<path d="M8.91333 15.1667H5.33333C2.9 15.1667 1.5 13.7667 1.5 11.3334V5.66671C1.5 3.23337 2.9 1.83337 5.33333 1.83337H10.6667C13.1 1.83337 14.5 3.23337 14.5 5.66671V8.66671C14.5 8.94004 14.2733 9.16671 14 9.16671C13.7267 9.16671 13.5 8.94004 13.5 8.66671V5.66671C13.5 3.76004 12.5733 2.83337 10.6667 2.83337H5.33333C3.42667 2.83337 2.5 3.76004 2.5 5.66671V11.3334C2.5 13.24 3.42667 14.1667 5.33333 14.1667H8.91333C9.18666 14.1667 9.41333 14.3934 9.41333 14.6667C9.41333 14.94 9.18666 15.1667 8.91333 15.1667Z" fill="#AAAAAA"/>
</svg>
