<svg width="16" height="16" viewBox="0 0 16 16" fill="none" xmlns="http://www.w3.org/2000/svg">
<path d="M7.39967 15.1666H4.59967C1.99301 15.1666 0.833008 14.0066 0.833008 11.3999V8.59992C0.833008 5.99325 1.99301 4.83325 4.59967 4.83325H7.39967C10.0063 4.83325 11.1663 5.99325 11.1663 8.59992V11.3999C11.1663 14.0066 10.0063 15.1666 7.39967 15.1666ZM4.59967 5.83325C2.53301 5.83325 1.83301 6.53325 1.83301 8.59992V11.3999C1.83301 13.4666 2.53301 14.1666 4.59967 14.1666H7.39967C9.46634 14.1666 10.1663 13.4666 10.1663 11.3999V8.59992C10.1663 6.53325 9.46634 5.83325 7.39967 5.83325H4.59967Z" fill="#2082DB"/>
<path d="M11.3997 11.1666H10.6663C10.393 11.1666 10.1663 10.9399 10.1663 10.6666V8.59992C10.1663 6.53325 9.46634 5.83325 7.39967 5.83325H5.33301C5.05967 5.83325 4.83301 5.60659 4.83301 5.33325V4.59992C4.83301 1.99325 5.99301 0.833252 8.59967 0.833252H11.3997C14.0063 0.833252 15.1663 1.99325 15.1663 4.59992V7.39992C15.1663 10.0066 14.0063 11.1666 11.3997 11.1666ZM11.1663 10.1666H11.3997C13.4663 10.1666 14.1663 9.46659 14.1663 7.39992V4.59992C14.1663 2.53325 13.4663 1.83325 11.3997 1.83325H8.59967C6.53301 1.83325 5.83301 2.53325 5.83301 4.59992V4.83325H7.39967C10.0063 4.83325 11.1663 5.99325 11.1663 8.59992V10.1666Z" fill="#2082DB"/>
</svg>
