<svg xmlns="http://www.w3.org/2000/svg" width="25" height="25" viewBox="0 0 59.922 56">
    <defs>
        <style>
        </style>
    </defs>
    <g id="ic_dashboard">
        <circle id="Ellipse_466" cx="1.257" cy="1.257" r="1.257" style="fill:#228ced" transform="translate(21.206 53.448)"/>
        <circle id="Ellipse_467" cx="1.257" cy="1.257" r="1.257" style="fill:#228ced" transform="translate(44.737)"/>
        <path id="Path_18064" d="M27.977 6.364A8.422 8.422 0 0 0 16.224 5.5l-.163.126a8.46 8.46 0 0 0 10.483 13.2 1.043 1.043 0 0 0 .176-1.458.2.2 0 0 0-.075-.1 1.006 1.006 0 0 0-1.257-.126 6.423 6.423 0 0 1-2.652 1.106v-1.891a4.55 4.55 0 0 0 3.432-3.432h1.81a6.134 6.134 0 0 1-.6 1.6 1.031 1.031 0 0 0 .2 1.257 1.081 1.081 0 0 0 .742.289 1.056 1.056 0 0 0 .729-.327.767.767 0 0 0 .189-.3 8.46 8.46 0 0 0-1.257-9.076zm-7.391 11.853a6.411 6.411 0 0 1-5.179-7.442 6.21 6.21 0 0 1 1.4-2.992l1.257 1.257a4.638 4.638 0 0 0-1.081 3.193l.063.063a4.462 4.462 0 0 0 1.534 3.143 4.563 4.563 0 0 0 2.011 1.018zm1.106-3.771a2.537 2.537 0 0 1-1.86-4.236 2.589 2.589 0 0 1 1.785-.754 2.478 2.478 0 1 1 .075 4.953zm4.408-3.557a4.588 4.588 0 0 0-5.292-3.507 5.028 5.028 0 0 0-1.106.365L18.336 6.4a6.348 6.348 0 0 1 8.6 1.936 6.486 6.486 0 0 1 .98 2.514z" style="fill:#228ced" transform="translate(3.449 .902)"/>
        <path id="Path_18065" d="M18.561 18.43h-4.023a1.031 1.031 0 0 0-1.018 1.031v9.2a1.031 1.031 0 0 0 1.031 1.031h4a1.031 1.031 0 0 0 1.031-1.031v-9.213a1.018 1.018 0 0 0-1.021-1.018zm-1.044 1.97v7.2h-1.91v-7.2z" style="fill:#bddbf3" transform="translate(3.475 4.737)"/>
        <path id="Path_18066" d="M24.608 21.35h-4a1.031 1.031 0 0 0-1.031 1.031V27.9a1.031 1.031 0 0 0 1.031 1.031h4a1.031 1.031 0 0 0 1.031-1.031v-5.519a1.031 1.031 0 0 0-1.031-1.031zm-1.018 2.074v3.444h-1.923v-3.444z" style="fill:#bddbf3" transform="translate(5.032 5.487)"/>
        <path id="Path_18067" d="M30.678 23.06h-4.01a.955.955 0 0 0-.716.3 1.043 1.043 0 0 0-.3.729v3.371a1.018 1.018 0 0 0 1.006 1.031h4.022a1.006 1.006 0 0 0 .98-1.031v-3.369a.93.93 0 0 0-.289-.729 1.031 1.031 0 0 0-.691-.3zm-1.031 2.049v1.257h-1.923v-1.257z" style="fill:#bddbf3" transform="translate(6.593 5.927)"/>
        <path id="Path_18068" d="M36.954 20.12h-4.223a.968.968 0 0 0-.716.289.98.98 0 0 0-.314.679v7.19a1.031 1.031 0 0 0 1.031 1.031h4a1.031 1.031 0 0 0 1.031-1.031v-7.165a1.018 1.018 0 0 0-.8-.993zM35.7 22.106v5.028h-1.888v-5.028z" style="fill:#bddbf3" transform="translate(8.147 5.171)"/>
        <path id="Path_18069" d="M42.788 18.43h-4.01a1.031 1.031 0 0 0-1.018 1.031v9.2a1.009 1.009 0 0 0 1.018 1.031h4a1.031 1.031 0 0 0 1.031-1.031v-9.213a1.018 1.018 0 0 0-1.021-1.018zm-.955 1.97v7.2h-2v-7.2z" style="fill:#bddbf3" transform="translate(9.705 4.737)"/>
        <path id="Path_18070" d="M53.738 0h-3.772a1.257 1.257 0 1 0 0 2.514h3.771a3.683 3.683 0 0 1 3.67 3.7v29.322h-44V2.514H42.2A1.257 1.257 0 1 0 42.2 0H6.109A6.2 6.2 0 0 0 0 6.285v32.444a6.21 6.21 0 0 0 6.2 6.185h17.281a5.292 5.292 0 0 1-3.771 3.545h-3a3.771 3.771 0 0 0 0 7.542h2.062a1.257 1.257 0 1 0 0-2.514h-2.066a1.257 1.257 0 1 1 0-2.514h26.661a1.257 1.257 0 1 1 0 2.514H27.83a1.257 1.257 0 0 0 0 2.514h15.537a3.771 3.771 0 1 0 0-7.542h-2.325A5.657 5.657 0 0 1 36.6 44.9h17.163a6.185 6.185 0 0 0 6.159-6.185V6.185A6.21 6.21 0 0 0 53.738 0zM24.323 48.47a7.731 7.731 0 0 0 1.76-3.557h7.857a8.12 8.12 0 0 0 1.96 3.557zm33.085-9.742a3.683 3.683 0 0 1-3.645 3.67H6.2a3.7 3.7 0 0 1-3.683-3.67v-.678h3.404a1.257 1.257 0 0 0 0-2.514H2.514V6.2A3.683 3.683 0 0 1 6.2 2.514h4.752v33.022h-1.26a1.257 1.257 0 0 0 0 2.514h47.766z" style="fill:#228ced"/>
        <path id="Path_18071" d="M5.907 10.444a3 3 0 1 1 2.137-.88 3.017 3.017 0 0 1-2.137.88zm0-3.947a.93.93 0 1 0 .892.968.93.93 0 0 0-.892-.965z" style="fill:#228ced" transform="translate(.743 1.133)"/>
        <path id="Path_18072" d="M7.694 13.347H3.923a1.043 1.043 0 1 1 0-2.087h3.771a1.043 1.043 0 1 1 0 2.087z" style="fill:#baddfe" transform="translate(.74 2.894)"/>
        <path id="Path_18073" d="M7.694 17.027H3.923a1.043 1.043 0 0 1 0-2.087h3.771a1.043 1.043 0 0 1 0 2.087z" style="fill:#baddfe" transform="translate(.74 3.84)"/>
        <path id="Path_18074" d="M7.694 20.6H3.923a1.043 1.043 0 1 1 0-2.087h3.771a1.043 1.043 0 1 1 0 2.087z" style="fill:#baddfe" transform="translate(.74 4.757)"/>
    </g>
</svg>
