<svg width="15" height="15" viewBox="0 0 21 21" fill="none" xmlns="http://www.w3.org/2000/svg">
<path d="M18.0001 6.10833C17.9834 6.10833 17.9584 6.10833 17.9334 6.10833C13.5251 5.66667 9.12505 5.5 4.76672 5.94167L3.06672 6.10833C2.71672 6.14167 2.40839 5.89167 2.37505 5.54167C2.34172 5.19167 2.59172 4.89167 2.93339 4.85833L4.63338 4.69167C9.06672 4.24167 13.5584 4.41667 18.0584 4.85833C18.4001 4.89167 18.6501 5.2 18.6167 5.54167C18.5917 5.86667 18.3167 6.10833 18.0001 6.10833Z" fill="#808080"/>
<path d="M7.58314 5.26666C7.5498 5.26666 7.51647 5.26666 7.4748 5.25832C7.14147 5.19999 6.90814 4.87499 6.96647 4.54166L7.1498 3.44999C7.28314 2.64999 7.46647 1.54166 9.40814 1.54166H11.5915C13.5415 1.54166 13.7248 2.69166 13.8498 3.45832L14.0331 4.54166C14.0915 4.88332 13.8581 5.20832 13.5248 5.25832C13.1831 5.31666 12.8581 5.08332 12.8081 4.74999L12.6248 3.66666C12.5081 2.94166 12.4831 2.79999 11.5998 2.79999H9.41647C8.53314 2.79999 8.51647 2.91666 8.39147 3.65832L8.1998 4.74166C8.1498 5.04999 7.88314 5.26666 7.58314 5.26666Z" fill="#808080"/>
<path d="M13.175 19.4583H7.825C4.91666 19.4583 4.8 17.85 4.70833 16.55L4.16666 8.15833C4.14166 7.81667 4.40833 7.51667 4.75 7.49167C5.1 7.475 5.39166 7.73334 5.41666 8.075L5.95833 16.4667C6.05 17.7333 6.08333 18.2083 7.825 18.2083H13.175C14.925 18.2083 14.9583 17.7333 15.0417 16.4667L15.5833 8.075C15.6083 7.73334 15.9083 7.475 16.25 7.49167C16.5917 7.51667 16.8583 7.80833 16.8333 8.15833L16.2917 16.55C16.2 17.85 16.0833 19.4583 13.175 19.4583Z" fill="#808080"/>
<path d="M11.8834 14.875H9.1084C8.76673 14.875 8.4834 14.5917 8.4834 14.25C8.4834 13.9083 8.76673 13.625 9.1084 13.625H11.8834C12.2251 13.625 12.5084 13.9083 12.5084 14.25C12.5084 14.5917 12.2251 14.875 11.8834 14.875Z" fill="#808080"/>
<path d="M12.5832 11.5417H8.4165C8.07484 11.5417 7.7915 11.2583 7.7915 10.9167C7.7915 10.575 8.07484 10.2917 8.4165 10.2917H12.5832C12.9248 10.2917 13.2082 10.575 13.2082 10.9167C13.2082 11.2583 12.9248 11.5417 12.5832 11.5417Z" fill="#808080"/>
</svg>
