<svg width="81" height="80" viewBox="0 0 81 80" fill="none" xmlns="http://www.w3.org/2000/svg">
<path d="M78.1225 35.4795L72.0425 29.3995C71.0025 28.3595 70.1625 26.3195 70.1625 24.8795V16.2395C70.1625 12.7195 67.2825 9.83953 63.7625 9.83953H55.1625C53.7225 9.83953 51.6825 8.99953 50.6425 7.95953L44.5625 1.87953C42.0825 -0.600469 38.0025 -0.600469 35.5225 1.87953L29.3625 7.95953C28.3625 8.99953 26.3225 9.83953 24.8425 9.83953H16.2425C12.7225 9.83953 9.84246 12.7195 9.84246 16.2395V24.8395C9.84246 26.2795 9.00246 28.3195 7.96246 29.3595L1.88246 35.4395C-0.597539 37.9195 -0.597539 41.9995 1.88246 44.4795L7.96246 50.5595C9.00246 51.5995 9.84246 53.6395 9.84246 55.0795V63.6795C9.84246 67.1995 12.7225 70.0795 16.2425 70.0795H24.8425C26.2825 70.0795 28.3225 70.9195 29.3625 71.9595L35.4425 78.0395C37.9225 80.5195 42.0025 80.5195 44.4825 78.0395L50.5625 71.9595C51.6025 70.9195 53.6425 70.0795 55.0825 70.0795H63.6825C67.2025 70.0795 70.0825 67.1995 70.0825 63.6795V55.0795C70.0825 53.6395 70.9225 51.5995 71.9625 50.5595L78.0425 44.4795C80.6425 42.0395 80.6425 37.9595 78.1225 35.4795ZM24.0025 27.9995C24.0025 25.7995 25.8025 23.9995 28.0025 23.9995C30.2025 23.9995 32.0025 25.7995 32.0025 27.9995C32.0025 30.1995 30.2425 31.9995 28.0025 31.9995C25.8025 31.9995 24.0025 30.1995 24.0025 27.9995ZM30.1225 54.1195C29.5225 54.7195 28.7625 54.9995 28.0025 54.9995C27.2425 54.9995 26.4825 54.7195 25.8825 54.1195C24.7225 52.9595 24.7225 51.0395 25.8825 49.8795L49.8825 25.8795C51.0425 24.7195 52.9625 24.7195 54.1225 25.8795C55.2825 27.0395 55.2825 28.9595 54.1225 30.1195L30.1225 54.1195ZM52.0025 55.9995C49.7625 55.9995 47.9625 54.1995 47.9625 51.9995C47.9625 49.7995 49.7625 47.9995 51.9625 47.9995C54.1625 47.9995 55.9625 49.7995 55.9625 51.9995C55.9625 54.1995 54.2025 55.9995 52.0025 55.9995Z" fill="#AAAAAA"/>
</svg>
