<svg width="25" height="24" viewBox="0 0 25 24" fill="none" xmlns="http://www.w3.org/2000/svg">
<path d="M12.5 22.7501C11.87 22.7501 11.28 22.5102 10.84 22.0602L9.32001 20.5402C9.20001 20.4202 8.88 20.2902 8.72 20.2902H6.56C5.26 20.2902 4.20999 19.2401 4.20999 17.9401V15.7802C4.20999 15.6202 4.07999 15.3002 3.95999 15.1802L2.44 13.6602C2 13.2202 1.75 12.6301 1.75 12.0001C1.75 11.3701 1.99 10.7801 2.44 10.3401L3.95999 8.8201C4.07999 8.7001 4.20999 8.38012 4.20999 8.22012V6.06021C4.20999 4.76021 5.26 3.71011 6.56 3.71011H8.72C8.88 3.71011 9.20001 3.58011 9.32001 3.46011L10.84 1.94009C11.72 1.06009 13.28 1.06009 14.16 1.94009L15.68 3.46011C15.8 3.58011 16.12 3.71011 16.28 3.71011H18.44C19.74 3.71011 20.79 4.76021 20.79 6.06021V8.22012C20.79 8.38012 20.92 8.7001 21.04 8.8201L22.56 10.3401C23 10.7801 23.25 11.3701 23.25 12.0001C23.25 12.6301 23.01 13.2202 22.56 13.6602L21.04 15.1802C20.92 15.3002 20.79 15.6202 20.79 15.7802V17.9401C20.79 19.2401 19.74 20.2902 18.44 20.2902H16.28C16.12 20.2902 15.8 20.4202 15.68 20.5402L14.16 22.0602C13.72 22.5102 13.13 22.7501 12.5 22.7501ZM5.01999 14.1201C5.41999 14.5201 5.70999 15.2202 5.70999 15.7802V17.9401C5.70999 18.4101 6.09 18.7902 6.56 18.7902H8.72C9.28 18.7902 9.98001 19.0801 10.38 19.4801L11.9 21.0001C12.22 21.3201 12.78 21.3201 13.1 21.0001L14.62 19.4801C15.02 19.0801 15.72 18.7902 16.28 18.7902H18.44C18.91 18.7902 19.29 18.4101 19.29 17.9401V15.7802C19.29 15.2202 19.58 14.5201 19.98 14.1201L21.5 12.6001C21.66 12.4401 21.75 12.2301 21.75 12.0001C21.75 11.7701 21.66 11.5602 21.5 11.4002L19.98 9.88015C19.58 9.48015 19.29 8.78012 19.29 8.22012V6.06021C19.29 5.59021 18.91 5.21011 18.44 5.21011H16.28C15.72 5.21011 15.02 4.92017 14.62 4.52017L13.1 3.00015C12.78 2.68015 12.22 2.68015 11.9 3.00015L10.38 4.52017C9.98001 4.92017 9.28 5.21011 8.72 5.21011H6.56C6.09 5.21011 5.70999 5.59021 5.70999 6.06021V8.22012C5.70999 8.78012 5.41999 9.48015 5.01999 9.88015L3.5 11.4002C3.34 11.5602 3.25 11.7701 3.25 12.0001C3.25 12.2301 3.34 12.4401 3.5 12.6001L5.01999 14.1201Z" fill="#666666"/>
<path d="M15.5002 16.0002C14.9402 16.0002 14.4902 15.5502 14.4902 15.0002C14.4902 14.4502 14.9402 14.0002 15.4902 14.0002C16.0402 14.0002 16.4902 14.4502 16.4902 15.0002C16.4902 15.5502 16.0502 16.0002 15.5002 16.0002Z" fill="#666666"/>
<path d="M9.51001 10.0002C8.95001 10.0002 8.5 9.55018 8.5 9.00018C8.5 8.45018 8.95 8.00018 9.5 8.00018C10.05 8.00018 10.5 8.45018 10.5 9.00018C10.5 9.55018 10.06 10.0002 9.51001 10.0002Z" fill="#808080"/>
<path d="M9.49945 15.7502C9.30945 15.7502 9.11945 15.6802 8.96945 15.5302C8.67945 15.2402 8.67945 14.7601 8.96945 14.4701L14.9695 8.47012C15.2595 8.18012 15.7395 8.18012 16.0295 8.47012C16.3195 8.76012 16.3195 9.24018 16.0295 9.53018L10.0295 15.5302C9.87945 15.6802 9.68945 15.7502 9.49945 15.7502Z" fill="#808080"/>
</svg>
