<svg width="32" height="32" viewBox="0 0 32 32" fill="none" xmlns="http://www.w3.org/2000/svg">
<path d="M26.36 14.9998H20.9733C18.2933 14.9998 17 13.6932 17 11.0265V5.63984C17 2.95984 18.3067 1.6665 20.9733 1.6665H26.36C29.04 1.6665 30.3333 2.97317 30.3333 5.63984V11.0265C30.3333 13.6932 29.0267 14.9998 26.36 14.9998ZM20.9733 3.6665C19.4 3.6665 19 4.0665 19 5.63984V11.0265C19 12.5998 19.4 12.9998 20.9733 12.9998H26.36C27.9333 12.9998 28.3333 12.5998 28.3333 11.0265V5.63984C28.3333 4.0665 27.9333 3.6665 26.36 3.6665H20.9733Z" fill="#2082DB"/>
<path d="M11.0267 14.9998H5.64C2.96001 14.9998 1.66667 13.8132 1.66667 11.3598V5.3065C1.66667 2.85317 2.97334 1.6665 5.64 1.6665H11.0267C13.7067 1.6665 15 2.85317 15 5.3065V11.3465C15 13.8132 13.6933 14.9998 11.0267 14.9998ZM5.64 3.6665C3.85334 3.6665 3.66667 4.17317 3.66667 5.3065V11.3465C3.66667 12.4932 3.85334 12.9865 5.64 12.9865H11.0267C12.8133 12.9865 13 12.4798 13 11.3465V5.3065C13 4.15984 12.8133 3.6665 11.0267 3.6665H5.64Z" fill="#2082DB"/>
<path d="M11.0267 30.3333H5.64C2.96001 30.3333 1.66667 29.0267 1.66667 26.36V20.9733C1.66667 18.2933 2.97334 17 5.64 17H11.0267C13.7067 17 15 18.3067 15 20.9733V26.36C15 29.0267 13.6933 30.3333 11.0267 30.3333ZM5.64 19C4.06667 19 3.66667 19.4 3.66667 20.9733V26.36C3.66667 27.9333 4.06667 28.3333 5.64 28.3333H11.0267C12.6 28.3333 13 27.9333 13 26.36V20.9733C13 19.4 12.6 19 11.0267 19H5.64Z" fill="#2082DB"/>
<path d="M27.3333 24.3335H19.3333C18.7867 24.3335 18.3333 23.8802 18.3333 23.3335C18.3333 22.7868 18.7867 22.3335 19.3333 22.3335H27.3333C27.88 22.3335 28.3333 22.7868 28.3333 23.3335C28.3333 23.8802 27.88 24.3335 27.3333 24.3335Z" fill="#2082DB"/>
<path d="M23.3333 28.3335C22.7867 28.3335 22.3333 27.8802 22.3333 27.3335V19.3335C22.3333 18.7868 22.7867 18.3335 23.3333 18.3335C23.88 18.3335 24.3333 18.7868 24.3333 19.3335V27.3335C24.3333 27.8802 23.88 28.3335 23.3333 28.3335Z" fill="#2082DB"/>
</svg>
