<svg width="40" height="40" viewBox="0 0 40 40" fill="none" xmlns="http://www.w3.org/2000/svg">
<path d="M25 37.9166H15C5.95001 37.9166 2.08334 34.0499 2.08334 24.9999V14.9999C2.08334 5.94992 5.95001 2.08325 15 2.08325H25C34.05 2.08325 37.9167 5.94992 37.9167 14.9999V24.9999C37.9167 34.0499 34.05 37.9166 25 37.9166ZM15 4.58325C7.31668 4.58325 4.58334 7.31659 4.58334 14.9999V24.9999C4.58334 32.6833 7.31668 35.4166 15 35.4166H25C32.6833 35.4166 35.4167 32.6833 35.4167 24.9999V14.9999C35.4167 7.31659 32.6833 4.58325 25 4.58325H15Z" fill="#8EC1EE"/>
<path d="M14.6835 30.4168C14.5668 30.4168 14.4335 30.4168 14.3168 30.3834L12.3335 30.1168C11.1335 29.9501 10.0835 28.9168 9.90016 27.6834L9.61683 25.6668C9.50016 24.8668 9.8335 23.8501 10.4168 23.2501L14.2168 19.4501C13.6502 16.7501 14.4668 13.9501 16.4502 11.9834C19.6335 8.80011 24.8335 8.80011 28.0168 11.9834C29.5668 13.5334 30.4168 15.5834 30.4168 17.7668C30.4168 19.9501 29.5668 22.0168 28.0168 23.5501C26.0335 25.5168 23.2335 26.3334 20.5502 25.7668L16.7335 29.5668C16.2502 30.0834 15.4335 30.4168 14.6835 30.4168ZM22.2335 12.0834C20.7835 12.0834 19.3168 12.6334 18.2168 13.7501C16.7168 15.2501 16.1835 17.4334 16.8002 19.4668C16.9335 19.9168 16.8168 20.3834 16.4835 20.7168L12.1835 25.0168C12.1502 25.0668 12.0835 25.2501 12.0835 25.3168L12.3668 27.3168C12.3835 27.4168 12.5668 27.6001 12.6668 27.6168L14.6668 27.9001C14.7502 27.8834 14.9168 27.8501 14.9668 27.8001L19.2835 23.4834C19.6168 23.1501 20.1002 23.0501 20.5335 23.1834C22.5502 23.8168 24.7335 23.2834 26.2335 21.7834C27.3002 20.7168 27.9002 19.2834 27.9002 17.7668C27.9002 16.2501 27.3168 14.8168 26.2335 13.7501C25.1502 12.6501 23.6835 12.0834 22.2335 12.0834Z" fill="#8EC1EE"/>
<path d="M17.4165 28.3833C17.0999 28.3833 16.7832 28.2666 16.5332 28.0166L15.0999 26.5833C14.6165 26.0999 14.6165 25.2999 15.0999 24.8166C15.5832 24.3333 16.3832 24.3333 16.8665 24.8166L18.2999 26.2499C18.7832 26.7333 18.7832 27.5333 18.2999 28.0166C18.0665 28.2666 17.7499 28.3833 17.4165 28.3833Z" fill="#8EC1EE"/>
<path d="M22.3001 19.6667C22.0668 19.6667 21.8501 19.6334 21.6501 19.55C21.4501 19.4667 21.2668 19.3334 21.1168 19.1834C20.8001 18.8667 20.6168 18.45 20.6168 18C20.6168 17.5667 20.8001 17.1334 21.1168 16.8334C21.5001 16.4334 22.0834 16.25 22.6168 16.3667C22.7168 16.4 22.8334 16.4167 22.9334 16.4667C23.0334 16.5167 23.1334 16.5667 23.2168 16.6167C23.3001 16.6834 23.4001 16.75 23.4668 16.8334C23.7834 17.1334 23.9668 17.5667 23.9668 18C23.9668 18.2334 23.9168 18.4334 23.8334 18.65C23.7501 18.85 23.6334 19.0334 23.4668 19.1834C23.1501 19.5 22.7334 19.6667 22.3001 19.6667Z" fill="#8EC1EE"/>
</svg>
