<svg width="32" height="32" viewBox="0 0 32 32" fill="none" xmlns="http://www.w3.org/2000/svg">
<path d="M20 30.3332H12C4.76001 30.3332 1.66667 27.2398 1.66667 19.9998V11.9998C1.66667 4.75984 4.76001 1.6665 12 1.6665H20C27.24 1.6665 30.3333 4.75984 30.3333 11.9998V19.9998C30.3333 27.2398 27.24 30.3332 20 30.3332ZM12 3.6665C5.85334 3.6665 3.66667 5.85317 3.66667 11.9998V19.9998C3.66667 26.1465 5.85334 28.3332 12 28.3332H20C26.1467 28.3332 28.3333 26.1465 28.3333 19.9998V11.9998C28.3333 5.85317 26.1467 3.6665 20 3.6665H12Z" fill="#2082DB"/>
<path d="M11.7467 24.3334C11.6534 24.3334 11.5467 24.3334 11.4534 24.3068L9.86674 24.0934C8.90674 23.9601 8.06674 23.1334 7.92008 22.1468L7.69341 20.5334C7.60008 19.8934 7.86674 19.0801 8.33341 18.6001L11.3734 15.5601C10.9201 13.4001 11.5734 11.1601 13.1601 9.58676C15.7067 7.04009 19.8667 7.04009 22.4134 9.58676C23.6534 10.8268 24.3334 12.4668 24.3334 14.2134C24.3334 15.9601 23.6534 17.6134 22.4134 18.8401C20.8267 20.4134 18.5867 21.0668 16.4401 20.6134L13.3867 23.6534C13.0001 24.0668 12.3467 24.3334 11.7467 24.3334ZM17.7867 9.66676C16.6267 9.66676 15.4534 10.1068 14.5734 11.0001C13.3734 12.2001 12.9467 13.9468 13.4401 15.5734C13.5467 15.9334 13.4534 16.3068 13.1867 16.5734L9.74674 20.0134C9.72008 20.0534 9.66674 20.2001 9.66674 20.2534L9.89341 21.8534C9.90674 21.9334 10.0534 22.0801 10.1334 22.0934L11.7334 22.3201C11.8001 22.3068 11.9334 22.2801 11.9734 22.2401L15.4267 18.7868C15.6934 18.5201 16.0801 18.4401 16.4267 18.5468C18.0401 19.0534 19.7867 18.6268 20.9867 17.4268C21.8401 16.5734 22.3201 15.4268 22.3201 14.2134C22.3201 13.0001 21.8534 11.8534 20.9867 11.0001C20.1201 10.1201 18.9467 9.66676 17.7867 9.66676Z" fill="#2082DB"/>
<path d="M13.9333 22.7068C13.6799 22.7068 13.4266 22.6135 13.2266 22.4135L12.0799 21.2668C11.6933 20.8801 11.6933 20.2401 12.0799 19.8535C12.4666 19.4668 13.1066 19.4668 13.4933 19.8535L14.6399 21.0001C15.0266 21.3868 15.0266 22.0268 14.6399 22.4135C14.4533 22.6135 14.1999 22.7068 13.9333 22.7068Z" fill="#2082DB"/>
<path d="M17.84 15.7332C17.6534 15.7332 17.48 15.7065 17.32 15.6398C17.16 15.5732 17.0134 15.4665 16.8934 15.3465C16.64 15.0932 16.4934 14.7598 16.4934 14.3998C16.4934 14.0532 16.64 13.7065 16.8934 13.4665C17.2 13.1465 17.6667 12.9998 18.0934 13.0932C18.1734 13.1198 18.2667 13.1332 18.3467 13.1732C18.4267 13.2132 18.5067 13.2532 18.5734 13.2932C18.64 13.3465 18.72 13.3998 18.7734 13.4665C19.0267 13.7065 19.1734 14.0532 19.1734 14.3998C19.1734 14.5865 19.1334 14.7465 19.0667 14.9198C19 15.0798 18.9067 15.2265 18.7734 15.3465C18.52 15.5998 18.1867 15.7332 17.84 15.7332Z" fill="#2082DB"/>
</svg>
