<svg width="40" height="40" viewBox="0 0 40 40" fill="none" xmlns="http://www.w3.org/2000/svg">
<path d="M22.0833 19.9999C23.2339 19.9999 24.1667 19.0672 24.1667 17.9166C24.1667 16.766 23.2339 15.8333 22.0833 15.8333C20.9327 15.8333 20 16.766 20 17.9166C20 19.0672 20.9327 19.9999 22.0833 19.9999Z" fill="#2082DB"/>
<path d="M26.9833 3.33325H13.0167C6.95001 3.33325 3.33334 6.94992 3.33334 13.0166V26.9666C3.33334 33.0499 6.95001 36.6666 13.0167 36.6666H26.9667C33.0333 36.6666 36.65 33.0499 36.65 26.9833V13.0166C36.6667 6.94992 33.05 3.33325 26.9833 3.33325ZM26.4833 22.4499C24.7667 24.1499 22.3167 24.6833 20.15 23.9999L18.3833 25.7499C18.2333 25.8999 17.9667 25.8999 17.8 25.7499L16.1833 24.1333C15.95 23.8999 15.55 23.8999 15.3 24.1333C15.05 24.3666 15.0667 24.7666 15.3 25.0166L16.9167 26.6333C17.0833 26.7999 17.0833 27.0666 16.9167 27.2166L16.2333 27.8999C15.95 28.1999 15.4 28.3833 15 28.3333L13.1833 28.0833C12.5833 27.9999 12.0333 27.4333 11.9333 26.8333L11.6833 25.0166C11.6167 24.6166 11.8167 24.0666 12.0833 23.7833L16 19.8666C15.3333 17.6999 15.85 15.2499 17.5667 13.5333C20.0167 11.0833 24.0167 11.0833 26.4833 13.5333C28.95 15.9833 28.95 19.9833 26.4833 22.4499Z" fill="#2082DB"/>
</svg>
