<svg width="24" height="24" viewBox="0 0 24 24" fill="none" xmlns="http://www.w3.org/2000/svg">
<path d="M8.75998 22.27H8.88999C13.33 22.27 15.47 20.52 15.84 16.6C15.88 16.19 15.58 15.82 15.16 15.78C14.76 15.74 14.38 16.05 14.34 16.46C14.05 19.6 12.57 20.77 8.87998 20.77H8.74998C4.67999 20.77 3.23998 19.33 3.23998 15.26V8.73998C3.23998 4.66998 4.67999 3.22998 8.74998 3.22998H8.87998C12.59 3.22998 14.07 4.41998 14.34 7.61998C14.39 8.02998 14.74 8.33998 15.16 8.29998C15.58 8.26998 15.88 7.89998 15.85 7.48998C15.51 3.50998 13.36 1.72998 8.88999 1.72998H8.75998C3.84999 1.72998 1.74998 3.82998 1.74998 8.73998V15.26C1.74998 20.17 3.84999 22.27 8.75998 22.27Z" fill="#AAAAAA"/>
<path d="M9 12.75H20.38C20.79 12.75 21.13 12.41 21.13 12C21.13 11.59 20.79 11.25 20.38 11.25H9C8.59 11.25 8.25 11.59 8.25 12C8.25 12.41 8.59 12.75 9 12.75Z" fill="#AAAAAA"/>
<path d="M18.1501 16.0998C18.3401 16.0998 18.5301 16.0298 18.6801 15.8798L22.0301 12.5298C22.3201 12.2398 22.3201 11.7598 22.0301 11.4698L18.6801 8.11984C18.3901 7.82984 17.9101 7.82984 17.6201 8.11984C17.3301 8.40984 17.3301 8.88984 17.6201 9.17984L20.4401 11.9998L17.6201 14.8198C17.3301 15.1098 17.3301 15.5898 17.6201 15.8798C17.7601 16.0298 17.9601 16.0998 18.1501 16.0998Z" fill="#AAAAAA"/>
</svg>
