<svg width="96" height="96" viewBox="0 0 96 96" fill="none" xmlns="http://www.w3.org/2000/svg">
<path d="M77.479 19.5605L54.039 9.12047C50.599 7.60047 45.399 7.60047 41.959 9.12047L18.519 19.5605C12.599 22.2005 11.719 25.8005 11.719 27.7205C11.719 29.6405 12.599 33.2405 18.519 35.8805L41.959 46.3205C43.679 47.0805 45.839 47.4805 47.999 47.4805C50.159 47.4805 52.319 47.0805 54.039 46.3205L77.479 35.8805C83.399 33.2405 84.279 29.6405 84.279 27.7205C84.279 25.8005 83.439 22.2005 77.479 19.5605Z" fill="#AAAAAA"/>
<path d="M48.001 68.16C46.481 68.16 44.961 67.84 43.561 67.24L16.601 55.24C12.481 53.4 9.28101 48.48 9.28101 43.96C9.28101 42.32 10.601 41 12.241 41C13.881 41 15.201 42.32 15.201 43.96C15.201 46.12 17.001 48.92 19.001 49.8L45.961 61.8C47.241 62.36 48.721 62.36 50.001 61.8L76.961 49.8C78.961 48.92 80.761 46.16 80.761 43.96C80.761 42.32 82.081 41 83.721 41C85.361 41 86.681 42.32 86.681 43.96C86.681 48.44 83.481 53.4 79.361 55.24L52.401 67.24C51.041 67.84 49.521 68.16 48.001 68.16Z" fill="#AAAAAA"/>
<path d="M48.001 87.9998C46.481 87.9998 44.961 87.6798 43.561 87.0798L16.601 75.0798C12.161 73.1198 9.28101 68.6798 9.28101 63.7998C9.28101 62.1598 10.601 60.8398 12.241 60.8398C13.881 60.8398 15.201 62.1598 15.201 63.7998C15.201 66.3198 16.681 68.5998 19.001 69.6398L45.961 81.6398C47.241 82.1998 48.721 82.1998 50.001 81.6398L76.961 69.6398C79.241 68.6398 80.761 66.3198 80.761 63.7998C80.761 62.1598 82.081 60.8398 83.721 60.8398C85.361 60.8398 86.681 62.1598 86.681 63.7998C86.681 68.6798 83.801 73.0798 79.361 75.0798L52.401 87.0798C51.041 87.6798 49.521 87.9998 48.001 87.9998Z" fill="#AAAAAA"/>
</svg>
