<svg width="18" height="22" viewBox="0 0 18 22" fill="none" xmlns="http://www.w3.org/2000/svg">
<path d="M17.6199 7.45C16.5699 2.83 12.5399 0.75 8.99994 0.75C8.99994 0.75 8.99994 0.75 8.98994 0.75C5.45994 0.75 1.41994 2.82 0.369943 7.44C-0.800057 12.6 2.35994 16.97 5.21994 19.72C6.27994 20.74 7.63994 21.25 8.99994 21.25C10.3599 21.25 11.7199 20.74 12.7699 19.72C15.6299 16.97 18.7899 12.61 17.6199 7.45ZM8.99994 12.46C7.25994 12.46 5.84994 11.05 5.84994 9.31C5.84994 7.57 7.25994 6.16 8.99994 6.16C10.7399 6.16 12.1499 7.57 12.1499 9.31C12.1499 11.05 10.7399 12.46 8.99994 12.46Z" fill="#151515"/>
</svg>
