<svg width="25" height="24" viewBox="0 0 25 24" fill="none" xmlns="http://www.w3.org/2000/svg">
<path d="M12.4999 14.1701C10.3699 14.1701 8.62988 12.4401 8.62988 10.3001C8.62988 8.16009 10.3699 6.44009 12.4999 6.44009C14.6299 6.44009 16.3699 8.17009 16.3699 10.3101C16.3699 12.4501 14.6299 14.1701 12.4999 14.1701ZM12.4999 7.94009C11.1999 7.94009 10.1299 9.00009 10.1299 10.3101C10.1299 11.6201 11.1899 12.6801 12.4999 12.6801C13.8099 12.6801 14.8699 11.6201 14.8699 10.3101C14.8699 9.00009 13.7999 7.94009 12.4999 7.94009Z" fill="#666666"/>
<path d="M12.4997 22.7601C11.0197 22.7601 9.52969 22.2001 8.36969 21.0901C5.41969 18.2501 2.15969 13.7201 3.38969 8.33009C4.49969 3.44009 8.76969 1.25009 12.4997 1.25009C12.4997 1.25009 12.4997 1.25009 12.5097 1.25009C16.2397 1.25009 20.5097 3.44009 21.6197 8.34009C22.8397 13.7301 19.5797 18.2501 16.6297 21.0901C15.4697 22.2001 13.9797 22.7601 12.4997 22.7601ZM12.4997 2.75009C9.58969 2.75009 5.84969 4.30009 4.85969 8.66009C3.77969 13.3701 6.73969 17.4301 9.41969 20.0001C11.1497 21.6701 13.8597 21.6701 15.5897 20.0001C18.2597 17.4301 21.2197 13.3701 20.1597 8.66009C19.1597 4.30009 15.4097 2.75009 12.4997 2.75009Z" fill="#666666"/>
</svg>
