<svg width="16" height="16" viewBox="0 0 16 16" fill="none" xmlns="http://www.w3.org/2000/svg">
<path d="M5.33325 3.83337C5.05992 3.83337 4.83325 3.60671 4.83325 3.33337V1.33337C4.83325 1.06004 5.05992 0.833374 5.33325 0.833374C5.60659 0.833374 5.83325 1.06004 5.83325 1.33337V3.33337C5.83325 3.60671 5.60659 3.83337 5.33325 3.83337Z" fill="#AAAAAA"/>
<path d="M10.6667 3.83337C10.3934 3.83337 10.1667 3.60671 10.1667 3.33337V1.33337C10.1667 1.06004 10.3934 0.833374 10.6667 0.833374C10.9401 0.833374 11.1667 1.06004 11.1667 1.33337V3.33337C11.1667 3.60671 10.9401 3.83337 10.6667 3.83337Z" fill="#AAAAAA"/>
<path d="M5.66667 9.66679C5.58 9.66679 5.49333 9.6468 5.41333 9.61347C5.32667 9.58014 5.26 9.53345 5.19333 9.47345C5.07333 9.34679 5 9.18013 5 9.00013C5 8.91346 5.02 8.82679 5.05333 8.74679C5.08667 8.66679 5.13333 8.59347 5.19333 8.5268C5.26 8.4668 5.32667 8.42012 5.41333 8.38678C5.65333 8.28678 5.95333 8.34013 6.14 8.5268C6.26 8.65347 6.33333 8.82679 6.33333 9.00013C6.33333 9.04013 6.32667 9.0868 6.32 9.13347C6.31333 9.17347 6.3 9.21346 6.28 9.25346C6.26667 9.29346 6.24667 9.33346 6.22 9.37346C6.2 9.40679 6.16667 9.44012 6.14 9.47345C6.01333 9.59345 5.84 9.66679 5.66667 9.66679Z" fill="#AAAAAA"/>
<path d="M7.99992 9.6667C7.91325 9.6667 7.82658 9.64671 7.74658 9.61338C7.65992 9.58005 7.59325 9.53337 7.52659 9.47337C7.40659 9.3467 7.33325 9.18004 7.33325 9.00004C7.33325 8.91337 7.35325 8.8267 7.38659 8.7467C7.41992 8.6667 7.46659 8.59338 7.52659 8.52671C7.59325 8.46671 7.65992 8.42003 7.74658 8.3867C7.98658 8.28003 8.28658 8.34004 8.47325 8.52671C8.59325 8.65338 8.66659 8.8267 8.66659 9.00004C8.66659 9.04004 8.65992 9.08671 8.65325 9.13338C8.64659 9.17338 8.63325 9.21337 8.61325 9.25337C8.59992 9.29337 8.57992 9.33337 8.55325 9.37337C8.53325 9.4067 8.49992 9.44003 8.47325 9.47337C8.34658 9.59337 8.17325 9.6667 7.99992 9.6667Z" fill="#AAAAAA"/>
<path d="M10.3334 9.6667C10.2467 9.6667 10.1601 9.64671 10.0801 9.61338C9.99341 9.58005 9.92675 9.53337 9.86008 9.47337C9.83342 9.44003 9.80675 9.4067 9.78008 9.37337C9.75341 9.33337 9.73342 9.29337 9.72008 9.25337C9.70008 9.21337 9.68675 9.17338 9.68008 9.13338C9.67342 9.08671 9.66675 9.04004 9.66675 9.00004C9.66675 8.8267 9.74008 8.65338 9.86008 8.52671C9.92675 8.46671 9.99341 8.42003 10.0801 8.3867C10.3267 8.28003 10.6201 8.34004 10.8067 8.52671C10.9267 8.65338 11.0001 8.8267 11.0001 9.00004C11.0001 9.04004 10.9934 9.08671 10.9867 9.13338C10.9801 9.17338 10.9667 9.21337 10.9467 9.25337C10.9334 9.29337 10.9134 9.33337 10.8867 9.37337C10.8667 9.4067 10.8334 9.44003 10.8067 9.47337C10.6801 9.59337 10.5067 9.6667 10.3334 9.6667Z" fill="#AAAAAA"/>
<path d="M5.66667 11.9999C5.58 11.9999 5.49333 11.9799 5.41333 11.9466C5.33333 11.9133 5.26 11.8666 5.19333 11.8066C5.07333 11.6799 5 11.5066 5 11.3333C5 11.2466 5.02 11.1599 5.05333 11.0799C5.08667 10.9933 5.13333 10.9199 5.19333 10.8599C5.44 10.6133 5.89333 10.6133 6.14 10.8599C6.26 10.9866 6.33333 11.1599 6.33333 11.3333C6.33333 11.5066 6.26 11.6799 6.14 11.8066C6.01333 11.9266 5.84 11.9999 5.66667 11.9999Z" fill="#AAAAAA"/>
<path d="M7.99992 11.9999C7.82659 11.9999 7.65325 11.9266 7.52659 11.8066C7.40659 11.6799 7.33325 11.5066 7.33325 11.3333C7.33325 11.2466 7.35325 11.1599 7.38659 11.0799C7.41992 10.9933 7.46659 10.9199 7.52659 10.8599C7.77325 10.6133 8.22658 10.6133 8.47325 10.8599C8.53325 10.9199 8.57992 10.9933 8.61325 11.0799C8.64658 11.1599 8.66659 11.2466 8.66659 11.3333C8.66659 11.5066 8.59325 11.6799 8.47325 11.8066C8.34658 11.9266 8.17325 11.9999 7.99992 11.9999Z" fill="#AAAAAA"/>
<path d="M10.3334 12.0001C10.1601 12.0001 9.98675 11.9267 9.86008 11.8067C9.80008 11.7467 9.75342 11.6734 9.72008 11.5867C9.68675 11.5067 9.66675 11.4201 9.66675 11.3334C9.66675 11.2467 9.68675 11.1601 9.72008 11.0801C9.75342 10.9934 9.80008 10.9201 9.86008 10.8601C10.0134 10.7067 10.2467 10.6334 10.4601 10.6801C10.5067 10.6867 10.5467 10.7001 10.5867 10.7201C10.6267 10.7334 10.6667 10.7534 10.7067 10.7801C10.7401 10.8001 10.7734 10.8334 10.8067 10.8601C10.9267 10.9867 11.0001 11.1601 11.0001 11.3334C11.0001 11.5067 10.9267 11.6801 10.8067 11.8067C10.6801 11.9267 10.5067 12.0001 10.3334 12.0001Z" fill="#AAAAAA"/>
<path d="M13.6666 6.56006H2.33325C2.05992 6.56006 1.83325 6.33339 1.83325 6.06006C1.83325 5.78673 2.05992 5.56006 2.33325 5.56006H13.6666C13.9399 5.56006 14.1666 5.78673 14.1666 6.06006C14.1666 6.33339 13.9399 6.56006 13.6666 6.56006Z" fill="#AAAAAA"/>
<path d="M10.6667 15.1667H5.33333C2.9 15.1667 1.5 13.7667 1.5 11.3334V5.66671C1.5 3.23337 2.9 1.83337 5.33333 1.83337H10.6667C13.1 1.83337 14.5 3.23337 14.5 5.66671V11.3334C14.5 13.7667 13.1 15.1667 10.6667 15.1667ZM5.33333 2.83337C3.42667 2.83337 2.5 3.76004 2.5 5.66671V11.3334C2.5 13.24 3.42667 14.1667 5.33333 14.1667H10.6667C12.5733 14.1667 13.5 13.24 13.5 11.3334V5.66671C13.5 3.76004 12.5733 2.83337 10.6667 2.83337H5.33333Z" fill="#AAAAAA"/>
</svg>
