<svg width="32" height="32" viewBox="0 0 32 32" fill="none" xmlns="http://www.w3.org/2000/svg">
<path d="M7.99999 25.0001C7.74666 25.0001 7.49333 24.9068 7.29333 24.7068C6.90666 24.3201 6.90666 23.6801 7.29333 23.2934L23.2933 7.29342C23.68 6.90675 24.32 6.90675 24.7067 7.29342C25.0933 7.68008 25.0933 8.32009 24.7067 8.70675L8.70666 24.7068C8.50666 24.9068 8.25333 25.0001 7.99999 25.0001Z" fill="#AAAAAA"/>
<path d="M24 14.3333C23.4533 14.3333 23 13.88 23 13.3333V9H18.6667C18.12 9 17.6667 8.54667 17.6667 8C17.6667 7.45333 18.12 7 18.6667 7H24C24.5467 7 25 7.45333 25 8V13.3333C25 13.88 24.5467 14.3333 24 14.3333Z" fill="#AAAAAA"/>
<path d="M13.3333 25.0001H8C7.45333 25.0001 7 24.5467 7 24.0001V18.6667C7 18.1201 7.45333 17.6667 8 17.6667C8.54667 17.6667 9 18.1201 9 18.6667V23.0001H13.3333C13.88 23.0001 14.3333 23.4534 14.3333 24.0001C14.3333 24.5467 13.88 25.0001 13.3333 25.0001Z" fill="#AAAAAA"/>
<path d="M24 25.0001C23.7467 25.0001 23.4933 24.9068 23.2933 24.7068L7.29333 8.70675C6.90666 8.32009 6.90666 7.68008 7.29333 7.29342C7.67999 6.90675 8.31999 6.90675 8.70666 7.29342L24.7067 23.2934C25.0933 23.6801 25.0933 24.3201 24.7067 24.7068C24.5067 24.9068 24.2533 25.0001 24 25.0001Z" fill="#AAAAAA"/>
<path d="M8 14.3333C7.45333 14.3333 7 13.88 7 13.3333V8C7 7.45333 7.45333 7 8 7H13.3333C13.88 7 14.3333 7.45333 14.3333 8C14.3333 8.54667 13.88 9 13.3333 9H9V13.3333C9 13.88 8.54667 14.3333 8 14.3333Z" fill="#AAAAAA"/>
<path d="M24 25.0001H18.6667C18.12 25.0001 17.6667 24.5467 17.6667 24.0001C17.6667 23.4534 18.12 23.0001 18.6667 23.0001H23V18.6667C23 18.1201 23.4533 17.6667 24 17.6667C24.5467 17.6667 25 18.1201 25 18.6667V24.0001C25 24.5467 24.5467 25.0001 24 25.0001Z" fill="#AAAAAA"/>
</svg>
