<svg width="40" height="40" viewBox="0 0 40 40" fill="none" xmlns="http://www.w3.org/2000/svg">
<path d="M26.3501 33.6332C25.9168 33.6332 25.4668 33.6165 24.9835 33.5665C24.1168 33.4999 23.1335 33.3332 22.1168 33.0832L19.3168 32.4165C11.6335 30.5999 9.11679 26.5332 10.9168 18.8665L12.5501 11.8832C12.9168 10.2999 13.3501 9.01653 13.8835 7.94986C16.7501 2.0332 22.2335 2.56653 26.1335 3.4832L28.9168 4.1332C32.8168 5.04986 35.2835 6.49986 36.6668 8.71653C38.0334 10.9332 38.2501 13.7832 37.3335 17.6832L35.7001 24.6499C34.2668 30.7499 31.2835 33.6332 26.3501 33.6332ZM21.8668 5.41653C19.0835 5.41653 17.3168 6.56653 16.1335 9.0332C15.7001 9.9332 15.3168 11.0499 14.9835 12.4499L13.3501 19.4332C11.8668 25.7332 13.5835 28.4832 19.8835 29.9832L22.6835 30.6499C23.5835 30.8665 24.4335 30.9999 25.2001 31.0665C29.7334 31.5165 31.9835 29.5332 33.2501 24.0832L34.8835 17.1165C35.6335 13.8999 35.5334 11.6499 34.5334 10.0332C33.5334 8.41653 31.5668 7.31653 28.3335 6.56653L25.5501 5.91653C24.1668 5.58319 22.9335 5.41653 21.8668 5.41653Z" fill="#8EC1EE"/>
<path d="M13.8836 37.0833C9.60025 37.0833 6.86691 34.5166 5.11691 29.1L2.98358 22.5166C0.616915 15.1833 2.73358 11.05 10.0336 8.6833L12.6669 7.83329C13.5336 7.56663 14.1836 7.38329 14.7669 7.28329C15.2502 7.1833 15.7169 7.36663 16.0002 7.74996C16.2836 8.1333 16.3336 8.6333 16.1336 9.06663C15.7002 9.94996 15.3169 11.0666 15.0002 12.4666L13.3669 19.45C11.8836 25.75 13.6002 28.5 19.9002 30L22.7002 30.6666C23.6002 30.8833 24.4502 31.0166 25.2169 31.0833C25.7502 31.1333 26.1836 31.5 26.3336 32.0166C26.4669 32.5333 26.2669 33.0666 25.8336 33.3666C24.7336 34.1166 23.3502 34.75 21.6002 35.3166L18.9669 36.1833C17.0502 36.7833 15.3836 37.0833 13.8836 37.0833ZM12.9669 10.3666L10.8169 11.0666C4.86691 12.9833 3.45025 15.7833 5.36691 21.75L7.50025 28.3333C9.43358 34.2833 12.2336 35.7166 18.1836 33.8L20.8169 32.9333C20.9169 32.9 21.0002 32.8666 21.1002 32.8333L19.3336 32.4166C11.6502 30.6 9.13358 26.5333 10.9336 18.8666L12.5669 11.8833C12.6836 11.35 12.8169 10.8333 12.9669 10.3666Z" fill="#8EC1EE"/>
<path d="M29.1503 17.5163C29.0503 17.5163 28.9503 17.4996 28.8336 17.483L20.7503 15.433C20.0836 15.2663 19.6836 14.583 19.8503 13.9163C20.0169 13.2496 20.7003 12.8496 21.3669 13.0163L29.4503 15.0663C30.1169 15.233 30.5169 15.9163 30.3503 16.583C30.2169 17.133 29.7003 17.5163 29.1503 17.5163Z" fill="#8EC1EE"/>
<path d="M24.2666 23.1498C24.1666 23.1498 24.0666 23.1332 23.9499 23.1165L19.0999 21.8832C18.4332 21.7165 18.0332 21.0332 18.1999 20.3665C18.3666 19.6998 19.0499 19.2998 19.7166 19.4665L24.5666 20.6998C25.2332 20.8665 25.6332 21.5498 25.4666 22.2165C25.3332 22.7832 24.8332 23.1498 24.2666 23.1498Z" fill="#8EC1EE"/>
</svg>
