<svg width="40" height="40" viewBox="0 0 40 40" fill="none" xmlns="http://www.w3.org/2000/svg">
<path d="M21.1296 33.2616C21.5875 33.3681 21.6294 33.9679 21.1834 34.1165L18.5501 34.9832C11.9334 37.1165 8.45008 35.3332 6.30008 28.7165L4.16675 22.1332C2.03341 15.5165 3.80008 12.0165 10.4167 9.8832L11.9674 9.36967C12.3703 9.23626 12.7554 9.63761 12.6275 10.0423C12.4574 10.5802 12.3007 11.1605 12.1501 11.7832L10.5167 18.7665C8.68341 26.6165 11.3667 30.9499 19.2167 32.8165L21.1296 33.2616Z" fill="#2082DB"/>
<path d="M28.6166 5.34985L25.8333 4.69985C20.2666 3.38318 16.95 4.46652 15 8.49985C14.5 9.51652 14.1 10.7499 13.7666 12.1665L12.1333 19.1499C10.5 26.1165 12.65 29.5499 19.6 31.1999L22.4 31.8665C23.3666 32.0999 24.2666 32.2499 25.1 32.3165C30.3 32.8165 33.0666 30.3832 34.4666 24.3665L36.1 17.3999C37.7333 10.4332 35.6 6.98318 28.6166 5.34985ZM25.4833 22.2165C25.3333 22.7832 24.8333 23.1499 24.2666 23.1499C24.1666 23.1499 24.0666 23.1332 23.95 23.1165L19.1 21.8832C18.4333 21.7165 18.0333 21.0332 18.2 20.3665C18.3666 19.6999 19.05 19.2999 19.7166 19.4665L24.5666 20.6999C25.25 20.8665 25.65 21.5499 25.4833 22.2165ZM30.3666 16.5832C30.2166 17.1499 29.7166 17.5165 29.15 17.5165C29.05 17.5165 28.95 17.4999 28.8333 17.4832L20.75 15.4332C20.0833 15.2665 19.6833 14.5832 19.85 13.9165C20.0166 13.2499 20.7 12.8499 21.3666 13.0165L29.45 15.0665C30.1333 15.2165 30.5333 15.8999 30.3666 16.5832Z" fill="#2082DB"/>
</svg>
