<svg width="96" height="96" viewBox="0 0 96 96" fill="none" xmlns="http://www.w3.org/2000/svg">
<path d="M76.96 22.3202H75.36L61.84 8.80023C60.76 7.72023 59 7.72023 57.88 8.80023C56.8 9.88023 56.8 11.6402 57.88 12.7602L67.44 22.3202H28.56L38.12 12.7602C39.2 11.6802 39.2 9.92023 38.12 8.80023C37.04 7.72023 35.28 7.72023 34.16 8.80023L20.68 22.3202H19.08C15.48 22.3202 8 22.3202 8 32.5602C8 36.4402 8.8 39.0002 10.48 40.6802C11.44 41.6802 12.6 42.2002 13.84 42.4802C15 42.7602 16.24 42.8002 17.44 42.8002H78.56C79.8 42.8002 80.96 42.7202 82.08 42.4802C85.44 41.6802 88 39.2802 88 32.5602C88 22.3202 80.52 22.3202 76.96 22.3202Z" fill="#AAAAAA"/>
<path d="M76.3591 48H19.6391C17.1591 48 15.2791 50.2 15.6791 52.64L19.0391 73.2C20.1591 80.08 23.1591 88 36.4791 88H58.9191C72.3991 88 74.7991 81.24 76.2391 73.68L80.2791 52.76C80.7591 50.28 78.8791 48 76.3591 48ZM55.6791 75.56C55.1191 76.16 54.3591 76.44 53.5591 76.44C52.7991 76.44 52.0391 76.16 51.4391 75.56L48.0791 72.16L44.5591 75.68C43.9591 76.28 43.1991 76.56 42.4391 76.56C41.6391 76.56 40.8791 76.28 40.3191 75.68C39.1191 74.52 39.1191 72.64 40.3191 71.44L43.8391 67.92L40.4391 64.56C39.2391 63.36 39.2391 61.48 40.4391 60.32C41.5991 59.12 43.4791 59.12 44.6791 60.32L48.0791 63.68L51.3191 60.44C52.5191 59.24 54.3991 59.24 55.5591 60.44C56.7591 61.6 56.7591 63.48 55.5591 64.68L52.3191 67.92L55.6791 71.32C56.8791 72.52 56.8791 74.4 55.6791 75.56Z" fill="#AAAAAA"/>
</svg>
