<svg width="40" height="40" viewBox="0 0 40 40" fill="none" xmlns="http://www.w3.org/2000/svg">
<path d="M26.6005 35.5337C26.2838 35.5337 25.9671 35.417 25.7171 35.167L23.1838 32.6337C22.7005 32.1504 22.7005 31.3504 23.1838 30.867C23.6671 30.3837 24.4671 30.3837 24.9505 30.867L26.6005 32.517L30.7838 28.3337C31.2671 27.8504 32.0671 27.8504 32.5505 28.3337C33.0338 28.817 33.0338 29.617 32.5505 30.1004L27.4838 35.167C27.2338 35.417 26.9171 35.5337 26.6005 35.5337Z" fill="#8EC1EE"/>
<path d="M20.267 19.3668C20.217 19.3668 20.1837 19.3668 20.1337 19.3668C20.0503 19.3502 19.9337 19.3502 19.8337 19.3668C15.0003 19.2168 11.3503 15.4168 11.3503 10.7335C11.3337 8.4335 12.2337 6.26683 13.867 4.6335C15.5003 3.00016 17.667 2.0835 19.9837 2.0835C24.7503 2.0835 28.6337 5.96683 28.6337 10.7335C28.6337 15.4168 24.9837 19.2002 20.317 19.3668C20.3003 19.3668 20.2837 19.3668 20.267 19.3668ZM19.9837 4.5835C18.3337 4.5835 16.8003 5.2335 15.6337 6.3835C14.4837 7.55016 13.8503 9.0835 13.8503 10.7168C13.8503 14.0502 16.4503 16.7502 19.767 16.8502C19.867 16.8335 20.0837 16.8335 20.3003 16.8502C23.5837 16.7002 26.1337 14.0168 26.1337 10.7168C26.1337 7.35016 23.367 4.5835 19.9837 4.5835Z" fill="#8EC1EE"/>
<path d="M19.9834 37.6001C16.5834 37.6001 13.3668 36.7168 10.9334 35.0835C8.61676 33.5335 7.3501 31.4168 7.3501 29.1335C7.3501 26.8501 8.63343 24.7501 10.9334 23.2168C15.9168 19.8835 24.0168 19.8835 29.0001 23.2168C29.5668 23.6001 29.7334 24.3835 29.3501 24.9501C28.9668 25.5335 28.1834 25.6835 27.6168 25.3001C23.4668 22.5335 16.4668 22.5335 12.3168 25.3001C10.7168 26.3668 9.8501 27.7168 9.8501 29.1335C9.8501 30.5501 10.7168 31.9335 12.3168 33.0001C14.3334 34.3501 17.0501 35.0835 19.9668 35.0835C20.6501 35.0835 21.2168 35.6501 21.2168 36.3335C21.2168 37.0168 20.6668 37.6001 19.9834 37.6001Z" fill="#8EC1EE"/>
</svg>
