<svg width="40" height="40" viewBox="0 0 40 40" fill="none" xmlns="http://www.w3.org/2000/svg">
<path d="M20.0002 3.3335C15.6335 3.3335 12.0835 6.8835 12.0835 11.2502C12.0835 15.5335 15.4335 19.0002 19.8002 19.1502C19.9335 19.1335 20.0668 19.1335 20.1668 19.1502C20.2002 19.1502 20.2168 19.1502 20.2502 19.1502C20.2668 19.1502 20.2668 19.1502 20.2835 19.1502C24.5502 19.0002 27.9002 15.5335 27.9168 11.2502C27.9168 6.8835 24.3668 3.3335 20.0002 3.3335Z" fill="#2082DB"/>
<path d="M28.4666 23.5999C23.8166 20.4999 16.2333 20.4999 11.5499 23.5999C9.43327 24.9999 8.2666 26.9166 8.2666 28.9666C8.2666 31.0166 9.43327 32.9166 11.5333 34.3166C13.8666 35.8832 16.9333 36.6666 19.9999 36.6666C23.0666 36.6666 26.1333 35.8832 28.4666 34.3166C30.5666 32.8999 31.7333 30.9999 31.7333 28.9332C31.7166 26.8999 30.5666 24.9832 28.4666 23.5999ZM23.8833 27.5999L19.6833 31.7999C19.4833 31.9999 19.2166 32.0999 18.9499 32.0999C18.6833 32.0999 18.4166 31.9832 18.2166 31.7999L16.1166 29.6999C15.7166 29.2999 15.7166 28.6332 16.1166 28.2332C16.5166 27.8332 17.1833 27.8332 17.5833 28.2332L18.9499 29.5999L22.4166 26.1332C22.8166 25.7332 23.4833 25.7332 23.8833 26.1332C24.2999 26.5332 24.2999 27.1999 23.8833 27.5999Z" fill="#2082DB"/>
</svg>
