<svg width="41" height="40" viewBox="0 0 41 40" fill="none" xmlns="http://www.w3.org/2000/svg">
<path d="M27.9832 37.9167H12.9999C10.1332 37.9167 7.98323 37.15 6.6499 35.6333C5.31656 34.1167 4.79988 31.9167 5.14988 29.0667L6.6499 16.5667C7.08323 12.8833 8.01656 9.58333 14.5166 9.58333H26.5166C32.9999 9.58333 33.9332 12.8833 34.3832 16.5667L35.8832 29.0667C36.2165 31.9167 35.7166 34.1333 34.3832 35.6333C32.9999 37.15 30.8666 37.9167 27.9832 37.9167ZM14.4999 12.0833C9.69988 12.0833 9.46655 13.9833 9.11655 16.85L7.61656 29.35C7.36656 31.4666 7.66655 33.0167 8.51655 33.9667C9.36655 34.9167 10.8666 35.4 12.9999 35.4H27.9832C30.1166 35.4 31.6165 34.9167 32.4665 33.9667C33.3165 33.0167 33.6166 31.4666 33.3666 29.35L31.8666 16.85C31.5166 13.9666 31.2999 12.0833 26.4832 12.0833H14.4999Z" fill="#AAAAAA"/>
<path d="M27.1668 14.5833C26.4835 14.5833 25.9168 14.0167 25.9168 13.3333V7.5C25.9168 5.7 24.8002 4.58333 23.0002 4.58333H18.0002C16.2002 4.58333 15.0835 5.7 15.0835 7.5V13.3333C15.0835 14.0167 14.5168 14.5833 13.8335 14.5833C13.1502 14.5833 12.5835 14.0167 12.5835 13.3333V7.5C12.5835 4.31666 14.8168 2.08333 18.0002 2.08333H23.0002C26.1835 2.08333 28.4168 4.31666 28.4168 7.5V13.3333C28.4168 14.0167 27.8502 14.5833 27.1668 14.5833Z" fill="#AAAAAA"/>
<path d="M34.5168 29.6334H13.8335C13.1502 29.6334 12.5835 29.0667 12.5835 28.3834C12.5835 27.7001 13.1502 27.1334 13.8335 27.1334H34.5168C35.2002 27.1334 35.7668 27.7001 35.7668 28.3834C35.7668 29.0667 35.2002 29.6334 34.5168 29.6334Z" fill="#AAAAAA"/>
</svg>
