<svg width="24" height="25" viewBox="0 0 24 25" fill="none" xmlns="http://www.w3.org/2000/svg">
<path d="M19.42 12.25H16C15.59 12.25 15.25 11.91 15.25 11.5V4.51C15.25 3.77 15.54 3.08 16.06 2.56C16.58 2.04 17.27 1.75 18.01 1.75H18.02C19.27 1.76 20.45 2.25 21.35 3.14C22.25 4.05 22.74 5.25 22.74 6.5V8.92C22.75 10.91 21.41 12.25 19.42 12.25ZM16.75 10.75H19.42C20.58 10.75 21.25 10.08 21.25 8.92V6.5C21.25 5.64 20.91 4.82 20.3 4.2C19.69 3.6 18.88 3.26 18.02 3.25C18.02 3.25 18.02 3.25 18.01 3.25C17.68 3.25 17.36 3.38 17.12 3.62C16.88 3.86 16.75 4.17 16.75 4.51V10.75Z" fill="#AAAAAA"/>
<path d="M8.99976 23.83C8.52976 23.83 8.08977 23.65 7.75977 23.31L6.09973 21.64C6.00973 21.55 5.86978 21.54 5.76978 21.62L4.05975 22.9C3.52975 23.3 2.82974 23.37 2.22974 23.07C1.62974 22.77 1.25977 22.17 1.25977 21.5V6.5C1.25977 3.48 2.98977 1.75 6.00977 1.75H18.0098C18.4198 1.75 18.7598 2.09 18.7598 2.5C18.7598 2.91 18.4198 3.25 18.0098 3.25C17.3198 3.25 16.7598 3.81 16.7598 4.5V21.5C16.7598 22.17 16.3897 22.77 15.7897 23.07C15.1997 23.37 14.4898 23.3 13.9598 22.9L12.2498 21.62C12.1498 21.54 12.0097 21.56 11.9297 21.64L10.2498 23.32C9.90976 23.65 9.46976 23.83 8.99976 23.83ZM5.90973 20.07C6.36973 20.07 6.81973 20.24 7.15973 20.59L8.81976 22.26C8.87976 22.32 8.95976 22.33 8.99976 22.33C9.03976 22.33 9.11975 22.32 9.17975 22.26L10.8597 20.58C11.4797 19.96 12.4598 19.9 13.1498 20.43L14.8497 21.7C14.9597 21.78 15.0597 21.75 15.1097 21.72C15.1597 21.69 15.2498 21.63 15.2498 21.5V4.5C15.2498 4.05 15.3597 3.62 15.5497 3.25H5.99976C3.77976 3.25 2.74976 4.28 2.74976 6.5V21.5C2.74976 21.64 2.83977 21.7 2.88977 21.73C2.94977 21.76 3.04978 21.78 3.14978 21.7L4.85974 20.42C5.16974 20.19 5.53973 20.07 5.90973 20.07Z" fill="#AAAAAA"/>
<path d="M12 10.25H6C5.59 10.25 5.25 9.91 5.25 9.5C5.25 9.09 5.59 8.75 6 8.75H12C12.41 8.75 12.75 9.09 12.75 9.5C12.75 9.91 12.41 10.25 12 10.25Z" fill="#AAAAAA"/>
<path d="M11.25 14.25H6.75C6.34 14.25 6 13.91 6 13.5C6 13.09 6.34 12.75 6.75 12.75H11.25C11.66 12.75 12 13.09 12 13.5C12 13.91 11.66 14.25 11.25 14.25Z" fill="#AAAAAA"/>
</svg>
