<svg width="40" height="40" viewBox="0 0 40 40" fill="none" xmlns="http://www.w3.org/2000/svg">
<path d="M24.4998 37.9166H15.4998C7.26651 37.9166 3.76651 34.4 3.76651 26.1833V18.7C3.76651 18.0166 4.33318 17.45 5.01651 17.45C5.69984 17.45 6.26651 18.0166 6.26651 18.7V26.1833C6.26651 33 8.68318 35.4166 15.4998 35.4166H24.4832C31.2998 35.4166 33.7165 33 33.7165 26.1833V18.7C33.7165 18.0166 34.2832 17.45 34.9665 17.45C35.6498 17.45 36.2165 18.0166 36.2165 18.7V26.1833C36.2332 34.4 32.7165 37.9166 24.4998 37.9166Z" fill="#8EC1EE"/>
<path d="M20 21.25C18.1667 21.25 16.5 20.5333 15.3167 19.2167C14.1333 17.9 13.5833 16.1833 13.7667 14.35L14.8833 3.21668C14.95 2.58334 15.4833 2.08334 16.1333 2.08334H23.9167C24.5667 2.08334 25.1 2.56668 25.1667 3.21668L26.2833 14.35C26.4667 16.1833 25.9167 17.9 24.7333 19.2167C23.5 20.5333 21.8333 21.25 20 21.25ZM17.25 4.58334L16.25 14.6C16.1333 15.7167 16.4667 16.7667 17.1667 17.5333C18.5833 19.1 21.4167 19.1 22.8333 17.5333C23.5333 16.75 23.8667 15.7 23.75 14.6L22.75 4.58334H17.25Z" fill="#8EC1EE"/>
<path d="M30.5167 21.25C27.1333 21.25 24.1167 18.5167 23.7667 15.15L22.6 3.46668C22.5667 3.11668 22.6833 2.76668 22.9167 2.50001C23.15 2.23334 23.4833 2.08334 23.85 2.08334H28.9333C33.8333 2.08334 36.1167 4.13334 36.8 9.16668L37.2667 13.8C37.4667 15.7667 36.8667 17.6333 35.5833 19.05C34.3 20.4667 32.5 21.25 30.5167 21.25ZM25.2333 4.58334L26.2667 14.9C26.4833 16.9833 28.4167 18.75 30.5167 18.75C31.7833 18.75 32.9167 18.2667 33.7333 17.3833C34.5333 16.5 34.9 15.3167 34.7833 14.05L34.3167 9.46668C33.8 5.70001 32.5833 4.58334 28.9333 4.58334H25.2333Z" fill="#8EC1EE"/>
<path d="M9.4 21.25C7.41667 21.25 5.61667 20.4667 4.33334 19.05C3.05001 17.6333 2.45001 15.7667 2.65001 13.8L3.10001 9.21668C3.80001 4.13334 6.08334 2.08334 10.9833 2.08334H16.0667C16.4167 2.08334 16.75 2.23334 17 2.50001C17.25 2.76668 17.35 3.11668 17.3167 3.46668L16.15 15.15C15.8 18.5167 12.7833 21.25 9.4 21.25ZM10.9833 4.58334C7.33334 4.58334 6.11667 5.68334 5.58334 9.50001L5.13334 14.05C5.00001 15.3167 5.38334 16.5 6.18334 17.3833C6.98334 18.2667 8.11667 18.75 9.4 18.75C11.5 18.75 13.45 16.9833 13.65 14.9L14.6833 4.58334H10.9833Z" fill="#8EC1EE"/>
<path d="M24.1667 37.9167H15.8333C15.15 37.9167 14.5833 37.35 14.5833 36.6667V32.5C14.5833 29 16.5 27.0833 20 27.0833C23.5 27.0833 25.4167 29 25.4167 32.5V36.6667C25.4167 37.35 24.85 37.9167 24.1667 37.9167ZM17.0833 35.4167H22.9167V32.5C22.9167 30.4 22.1 29.5833 20 29.5833C17.9 29.5833 17.0833 30.4 17.0833 32.5V35.4167Z" fill="#8EC1EE"/>
</svg>
