<svg width="32" height="32" viewBox="0 0 32 32" fill="none" xmlns="http://www.w3.org/2000/svg">
<path d="M19.5999 30.3333H12.3999C5.81326 30.3333 3.01326 27.52 3.01326 20.9466V14.96C3.01326 14.4133 3.46659 13.96 4.01326 13.96C4.55993 13.96 5.01326 14.4133 5.01326 14.96V20.9466C5.01326 26.4 6.94659 28.3333 12.3999 28.3333H19.5866C25.0399 28.3333 26.9733 26.4 26.9733 20.9466V14.96C26.9733 14.4133 27.4266 13.96 27.9733 13.96C28.5199 13.96 28.9733 14.4133 28.9733 14.96V20.9466C28.9866 27.52 26.1733 30.3333 19.5999 30.3333Z" fill="#2082DB"/>
<path d="M16 16.9998C14.5333 16.9998 13.2 16.4265 12.2533 15.3732C11.3067 14.3198 10.8667 12.9465 11.0133 11.4798L11.9067 2.57317C11.96 2.0665 12.3867 1.6665 12.9067 1.6665H19.1333C19.6533 1.6665 20.08 2.05317 20.1333 2.57317L21.0267 11.4798C21.1733 12.9465 20.7333 14.3198 19.7867 15.3732C18.8 16.4265 17.4667 16.9998 16 16.9998ZM13.8 3.6665L13 11.6798C12.9067 12.5732 13.1733 13.4132 13.7333 14.0265C14.8667 15.2798 17.1333 15.2798 18.2667 14.0265C18.8267 13.3998 19.0933 12.5598 19 11.6798L18.2 3.6665H13.8Z" fill="#2082DB"/>
<path d="M24.4133 16.9998C21.7067 16.9998 19.2933 14.8132 19.0133 12.1198L18.08 2.77317C18.0533 2.49317 18.1467 2.21317 18.3333 1.99984C18.52 1.7865 18.7867 1.6665 19.08 1.6665H23.1467C27.0667 1.6665 28.8933 3.3065 29.44 7.33317L29.8133 11.0398C29.9733 12.6132 29.4933 14.1065 28.4667 15.2398C27.44 16.3732 26 16.9998 24.4133 16.9998ZM20.1867 3.6665L21.0133 11.9198C21.1867 13.5865 22.7333 14.9998 24.4133 14.9998C25.4267 14.9998 26.3333 14.6132 26.9867 13.9065C27.6267 13.1998 27.92 12.2532 27.8267 11.2398L27.4533 7.57317C27.04 4.55984 26.0667 3.6665 23.1467 3.6665H20.1867Z" fill="#2082DB"/>
<path d="M7.52001 16.9998C5.93335 16.9998 4.49335 16.3732 3.46668 15.2398C2.44001 14.1065 1.96001 12.6132 2.12001 11.0398L2.48001 7.37317C3.04001 3.3065 4.86668 1.6665 8.78668 1.6665H12.8533C13.1333 1.6665 13.4 1.7865 13.6 1.99984C13.8 2.21317 13.88 2.49317 13.8533 2.77317L12.92 12.1198C12.64 14.8132 10.2267 16.9998 7.52001 16.9998ZM8.78668 3.6665C5.86668 3.6665 4.89335 4.5465 4.46668 7.59984L4.10668 11.2398C4.00001 12.2532 4.30668 13.1998 4.94668 13.9065C5.58668 14.6132 6.49335 14.9998 7.52001 14.9998C9.20001 14.9998 10.76 13.5865 10.92 11.9198L11.7467 3.6665H8.78668Z" fill="#2082DB"/>
<path d="M19.3333 30.3332H12.6667C12.12 30.3332 11.6667 29.8798 11.6667 29.3332V25.9998C11.6667 23.1998 13.2 21.6665 16 21.6665C18.8 21.6665 20.3333 23.1998 20.3333 25.9998V29.3332C20.3333 29.8798 19.88 30.3332 19.3333 30.3332ZM13.6667 28.3332H18.3333V25.9998C18.3333 24.3198 17.68 23.6665 16 23.6665C14.32 23.6665 13.6667 24.3198 13.6667 25.9998V28.3332Z" fill="#2082DB"/>
</svg>
