<svg width="24" height="25" viewBox="0 0 24 25" fill="none" xmlns="http://www.w3.org/2000/svg">
<path d="M5.40999 22.25C4.28999 22.25 3.57999 21.87 3.12999 21.42C2.24999 20.54 1.62999 18.67 3.60999 14.7L4.47999 12.97C4.58999 12.74 4.58999 12.26 4.47999 12.03L3.60999 10.3C1.61999 6.33002 2.24999 4.45002 3.12999 3.58002C3.99999 2.70002 5.87999 2.07002 9.83999 4.06002L18.4 8.34002C20.53 9.40002 21.7 10.88 21.7 12.5C21.7 14.12 20.53 15.6 18.41 16.66L9.84999 20.94C7.90999 21.91 6.46999 22.25 5.40999 22.25ZM5.40999 4.25002C4.86999 4.25002 4.44999 4.38002 4.18999 4.64002C3.45999 5.36002 3.74999 7.23002 4.94999 9.62002L5.81999 11.36C6.13999 12.01 6.13999 12.99 5.81999 13.64L4.94999 15.37C3.74999 17.77 3.45999 19.63 4.18999 20.35C4.90999 21.08 6.77999 20.79 9.17999 19.59L17.74 15.31C19.31 14.53 20.2 13.5 20.2 12.49C20.2 11.48 19.3 10.45 17.73 9.67002L9.16999 5.40002C7.64999 4.64002 6.33999 4.25002 5.40999 4.25002Z" fill="#AAAAAA"/>
<path d="M10.84 13.25H5.44C5.03 13.25 4.69 12.91 4.69 12.5C4.69 12.09 5.03 11.75 5.44 11.75H10.84C11.25 11.75 11.59 12.09 11.59 12.5C11.59 12.91 11.25 13.25 10.84 13.25Z" fill="#AAAAAA"/>
</svg>
