<svg width="40" height="40" viewBox="0 0 40 40" fill="none" xmlns="http://www.w3.org/2000/svg">
<path d="M37.2668 13.7833L36.7834 9.16658C36.0834 4.13325 33.8001 2.08325 28.9168 2.08325H24.9834H22.5168H17.4501H14.9834H10.9834C6.08342 2.08325 3.81675 4.13325 3.10009 9.21659L2.65009 13.7999C2.48342 15.5833 2.96675 17.3166 4.01675 18.6666C5.28342 20.3166 7.23342 21.2499 9.40009 21.2499C11.5001 21.2499 13.5168 20.1999 14.7834 18.5166C15.9168 20.1999 17.8501 21.2499 20.0001 21.2499C22.1501 21.2499 24.0334 20.2499 25.1834 18.5833C26.4668 20.2333 28.4501 21.2499 30.5168 21.2499C32.7334 21.2499 34.7334 20.2666 35.9834 18.5333C36.9834 17.1999 37.4334 15.5166 37.2668 13.7833Z" fill="#2082DB"/>
<path d="M18.9167 27.7667C16.8001 27.9834 15.2001 29.7834 15.2001 31.9167V36.4834C15.2001 36.9334 15.5667 37.3001 16.0167 37.3001H23.9667C24.4167 37.3001 24.7834 36.9334 24.7834 36.4834V32.5001C24.8001 29.0167 22.7501 27.3667 18.9167 27.7667Z" fill="#2082DB"/>
<path d="M35.6166 24.0001V28.9668C35.6166 33.5668 31.8833 37.3001 27.2833 37.3001C26.8333 37.3001 26.4666 36.9335 26.4666 36.4835V32.5001C26.4666 30.3668 25.8166 28.7001 24.5499 27.5668C23.4333 26.5501 21.9166 26.0501 20.0333 26.0501C19.6166 26.0501 19.1999 26.0668 18.7499 26.1168C15.7833 26.4168 13.5333 28.9168 13.5333 31.9168V36.4835C13.5333 36.9335 13.1666 37.3001 12.7166 37.3001C8.1166 37.3001 4.38327 33.5668 4.38327 28.9668V24.0335C4.38327 22.8668 5.53327 22.0835 6.6166 22.4668C7.0666 22.6168 7.5166 22.7335 7.98327 22.8001C8.18327 22.8335 8.39994 22.8668 8.59994 22.8668C8.8666 22.9001 9.13327 22.9168 9.39994 22.9168C11.3333 22.9168 13.2333 22.2001 14.7333 20.9668C16.1666 22.2001 18.0333 22.9168 19.9999 22.9168C21.9833 22.9168 23.8166 22.2335 25.2499 21.0001C26.7499 22.2168 28.6166 22.9168 30.5166 22.9168C30.8166 22.9168 31.1166 22.9001 31.3999 22.8668C31.5999 22.8501 31.7833 22.8335 31.9666 22.8001C32.4833 22.7335 32.9499 22.5835 33.4166 22.4335C34.4999 22.0668 35.6166 22.8668 35.6166 24.0001Z" fill="#2082DB"/>
</svg>
