<svg xmlns="http://www.w3.org/2000/svg" width="25" height="25" viewBox="0 0 60.008 60">
    <defs>
        <style>
        </style>
    </defs>
    <g id="ic_server" transform="translate(-.002 -.02)">
        <path id="Path_629" d="M20 12.9a2.9 2.9 0 1 0 2.9-2.9 2.9 2.9 0 0 0-2.9 2.9zm2.9-.968a.968.968 0 1 1-.968.968.968.968 0 0 1 .968-.965z" style="fill:#baddfe" transform="translate(-.645 -.303)"/>
        <path id="Path_630" d="M40.968 10a.968.968 0 0 1 .968.968v3.871a.968.968 0 0 1-.968.968.968.968 0 0 1-.968-.968v-3.871a.968.968 0 0 1 .968-.968z" style="fill:#baddfe" transform="translate(-1.291 -.303)"/>
        <path id="Path_631" d="M36.968 10a.968.968 0 0 1 .968.968v3.871a.968.968 0 0 1-.968.968.968.968 0 0 1-.968-.968v-3.871a.968.968 0 0 1 .968-.968z" style="fill:#baddfe" transform="translate(-1.162 -.303)"/>
        <path id="Path_632" d="M38.9 22a2.9 2.9 0 1 0 2.9 2.9 2.9 2.9 0 0 0-2.9-2.9zm0 3.871a.968.968 0 1 1 .968-.968.968.968 0 0 1-.968.968z" style="fill:#baddfe" transform="translate(-1.162 -.69)"/>
        <path id="Path_633" d="M20.968 22a.968.968 0 0 1 .968.968v3.871a.968.968 0 0 1-.968.968.968.968 0 0 1-.968-.968v-3.871a.968.968 0 0 1 .968-.968z" style="fill:#baddfe" transform="translate(-.645 -.69)"/>
        <path id="Path_634" d="M24.968 22a.968.968 0 0 1 .968.968v3.871a.968.968 0 0 1-.968.968.968.968 0 0 1-.968-.968v-3.871a.968.968 0 0 1 .968-.968z" style="fill:#baddfe" transform="translate(-.774 -.69)"/>
        <path id="Path_635" d="M3.871 41.819v-9.851A.968.968 0 0 0 2.9 31a.968.968 0 0 0-.968.968v9.852a2.91 2.91 0 1 0 1.935 0zm-.968 3.7a.968.968 0 1 1 .968-.968.968.968 0 0 1-.971.965z" style="fill:#228ced" transform="translate(0 -.98)"/>
        <path id="Path_636" d="M9.936 32.968v4.045a2.91 2.91 0 1 0 1.935 0v-4.045A.968.968 0 0 0 10.9 32a.968.968 0 0 0-.964.968zm.964 7.742a.968.968 0 1 1 .968-.968.968.968 0 0 1-.968.968z" style="fill:#228ced" transform="translate(-.258 -1.013)"/>
        <path id="Path_17609" d="M55.665 5.516a.465.465 0 0 1 .271.416v3.116a.968.968 0 1 0 1.935 0V5.932a.465.465 0 0 1 .281-.416 2.9 2.9 0 0 0 1.065-4.394A2.845 2.845 0 0 0 56.9 0a2.9 2.9 0 0 0-2.719 3.871 2.971 2.971 0 0 0 1.481 1.645zM56.9 1.935a.968.968 0 1 1-.968.968.968.968 0 0 1 .968-.968z" style="fill:#228ced" transform="translate(-1.743 .02)"/>
        <path id="Path_17610" d="M54.974 59.618a.968.968 0 0 0-.968-.174 6.774 6.774 0 0 1-2.468.455H15.045a7.239 7.239 0 0 1-5.632-2.7.965.965 0 0 0-1.519 1.19 9.184 9.184 0 0 0 7.171 3.445h36.473a8.574 8.574 0 0 0 3.2-.61.968.968 0 0 0 .31-1.529z" style="fill:#228ced" transform="translate(-.248 -1.814)"/>
        <path id="Path_17611" d="M2.2 18.566a6.774 6.774 0 0 1 6.668-4.839 6.493 6.493 0 0 1 .732.073l1.045.126.068-.968a11.487 11.487 0 0 1 2.061-5.806.968.968 0 0 0 0-1.19.968.968 0 0 0-1.6.029 13.548 13.548 0 0 0-2.313 5.806h-.074a8.71 8.71 0 0 0-6.416 14.675.983.983 0 0 0 1.442-1.335A6.774 6.774 0 0 1 2.2 18.566z" style="fill:#228ced" transform="translate(0 -.159)"/>
        <path id="Path_17612" d="M58.358 45.948a.435.435 0 0 1-.1-.271V36.9a.465.465 0 0 1 .281-.416 2.9 2.9 0 0 0 1.065-4.394 2.845 2.845 0 0 0-2.313-1.123 2.9 2.9 0 0 0-2.719 3.871 3.029 3.029 0 0 0 1.51 1.665.465.465 0 0 1 .261.406v6.339a.455.455 0 0 1-.658.416 8.642 8.642 0 0 0-4.2-1.084h-.155a12.406 12.406 0 0 0-.813-2.9v-8.586a.465.465 0 0 1 .281-.416 2.9 2.9 0 0 0 1.065-4.394 2.845 2.845 0 0 0-2.313-1.123 2.9 2.9 0 0 0-2.719 3.871 3.029 3.029 0 0 0 1.51 1.664.465.465 0 0 1 .261.406v3.871a.455.455 0 0 1-.784.31 13.306 13.306 0 0 0-2.9-2.332.387.387 0 0 1-.194-.329v-8.951a.445.445 0 0 1 .455-.445h7.8a3.358 3.358 0 0 0 3.348-3.358v-7.742a.968.968 0 0 0-1.935 0v7.742a1.423 1.423 0 0 1-1.423 1.423h-7.8a.455.455 0 0 1-.455-.455v-2.962a.455.455 0 0 1 .455-.455h1.994a3.358 3.358 0 0 0 3.358-3.358v-.387a.465.465 0 0 1 .281-.416 2.9 2.9 0 0 0 1.065-4.394 2.845 2.845 0 0 0-2.313-1.123 2.9 2.9 0 0 0-2.719 3.871 2.981 2.981 0 0 0 1.49 1.655.465.465 0 0 1 .281.416v.387a1.423 1.423 0 0 1-1.442 1.413h-1.996a.455.455 0 0 1-.455-.455V11.1a5.294 5.294 0 0 0-5.294-5.294h-5.642a.455.455 0 0 1-.368-.184 13.49 13.49 0 0 0-17.254-4.044 1.123 1.123 0 0 0-.261.135.97.97 0 0 0-.223 1.316l.116.145a.968.968 0 0 0 1.065.2 1.355 1.355 0 0 0 .165-.087A11.613 11.613 0 0 1 30.3 5.013a.455.455 0 0 1-.31.794h-9.016a5.294 5.294 0 0 0-5.293 5.293v15.542a.455.455 0 0 1-.455.455h-6.32a6.367 6.367 0 0 1-.871-.058.969.969 0 0 0-.213 1.926 8.052 8.052 0 0 0 1.084.068h6.319a.455.455 0 0 1 .455.455v11.9a.317.317 0 0 1-.048.2 7.258 7.258 0 0 0-.426.987h-.494a8.71 8.71 0 0 0-8.593 7.335.969.969 0 1 0 1.916.281A6.774 6.774 0 0 1 21.361 50a.981.981 0 0 0 1.939-.21 1.191 1.191 0 0 0 0-.184 8.71 8.71 0 0 0-5.681-6.513.445.445 0 0 1-.271-.619 6.774 6.774 0 0 1 11.119-1.5.959.959 0 0 0 1.413-1.3 8.187 8.187 0 0 0-1.316-1.2.474.474 0 0 1-.116-.639 11.613 11.613 0 0 1 21.048 5.806l.058 1.074.968-.135h.387a6.987 6.987 0 0 1 7.161 5.5 6.774 6.774 0 0 1-.726 4.529.968.968 0 0 0 1.694.939A8.71 8.71 0 0 0 58.28 46zm-8.807-36.27a.968.968 0 1 1-.968.968.968.968 0 0 1 .968-.968zm-27.1 27.1a.968.968 0 1 1 .968-.968.968.968 0 0 1-.964.964zm20.322-19.81a.455.455 0 0 1-.455.455H25.174a.968.968 0 0 0 0 1.935h17.148a.455.455 0 0 1 .455.455v8.768a.455.455 0 0 1-.455.455h-8.41a.968.968 0 1 0 0 1.935h8.864v.9a13.548 13.548 0 0 0-16.132 5.168.455.455 0 0 1-.523.174 8.389 8.389 0 0 0-.968-.271 2.9 2.9 0 1 0-5.284.126.445.445 0 0 1-.232.581 7.655 7.655 0 0 0-1.258.765.465.465 0 0 1-.735-.368v-6.623a.455.455 0 0 1 .455-.455h11.285a.968.968 0 1 0 0-1.935H18.071a.455.455 0 0 1-.455-.455V19.81a.455.455 0 0 1 .455-.455h2.352a.968.968 0 1 0 0-1.935h-2.352a.455.455 0 0 1-.455-.455V11.1a3.358 3.358 0 0 1 3.358-3.358h18.445a3.358 3.358 0 0 1 3.358 3.358zm6.774 12.068a.968.968 0 1 1 .968-.968.968.968 0 0 1-.964.964zm7.742 5.806a.968.968 0 1 1 .968-.968.968.968 0 0 1-.964.965z" style="fill:#228ced" transform="translate(-.197 .02)"/>
        <path id="Path_17613" d="M47.612 45.37a.968.968 0 0 1-.968-.8 7.742 7.742 0 0 0-6.581-6.552.975.975 0 0 1 .165-1.935h.145a9.677 9.677 0 0 1 8.177 8.148.968.968 0 0 1-.939 1.142z" style="fill:#baddfe" transform="translate(-1.267 -1.144)"/>
        <path id="Path_17614" d="M27.09 56.713a.968.968 0 0 1-.968.968h-11.08A4.964 4.964 0 0 1 10.1 53.81a4.839 4.839 0 0 1 3.6-5.681.968.968 0 0 1 1.142.9v.106a.968.968 0 0 1-.735.89 2.9 2.9 0 0 0-2.168 2.9 3.039 3.039 0 0 0 3.087 2.816h11.1a.968.968 0 0 1 .964.972z" style="fill:#baddfe" transform="translate(-.322 -1.532)"/>
        <path id="Path_640" d="M29.968 56a.968.968 0 0 1 .968.968.968.968 0 0 1-.968.968.968.968 0 0 1-.968-.968.968.968 0 0 1 .968-.968z" style="fill:#baddfe" transform="translate(-.936 -1.787)"/>
        <path id="Path_640-2" d="M31.518 42.81a.968.968 0 0 1 .968.968.968.968 0 0 1-.968.968.968.968 0 0 1-.968-.968.968.968 0 0 1 .968-.968z" style="fill:#228ced" transform="translate(-.986 -1.361)"/>
        <path id="Path_640-3" d="M58.118 57.84a.968.968 0 0 1 .968.968.968.968 0 0 1-.968.968.968.968 0 0 1-.968-.968.968.968 0 0 1 .968-.968z" style="fill:#228ced" transform="translate(-1.844 -1.846)"/>
        <path id="Path_17615" d="M9.811 24.872a.968.968 0 0 1-.871.968h-.3a4.839 4.839 0 0 1-4.48-3.61v-.077a.852.852 0 0 1 0-.165.976.976 0 0 1 1.868-.388.764.764 0 0 1 .058.213A2.9 2.9 0 0 0 8.844 23.9a.968.968 0 0 1 .967.972z" style="fill:#baddfe" transform="translate(-.134 -.658)"/>
        <path id="Path_644" d="M11.968 24a.968.968 0 0 1 .968.968.968.968 0 0 1-.968.968.968.968 0 0 1-.968-.968.968.968 0 0 1 .968-.968z" style="fill:#baddfe" transform="translate(-.355 -.754)"/>
    </g>
</svg>
