<svg xmlns="http://www.w3.org/2000/svg" id="server" width="25" height="25" viewBox="0 0 59.115 58.13">
    <defs>
        <style>
        </style>
    </defs>
    <path id="Path_17506" d="M10.434 6.5a4.434 4.434 0 1 0 4.434 4.434A4.439 4.439 0 0 0 10.434 6.5zm0 6.9a2.463 2.463 0 1 1 2.466-2.466 2.466 2.466 0 0 1-2.466 2.466z" style="fill:#228ced" data-name="Path 17506" transform="translate(-.088 -.588)"/>
    <circle id="Ellipse_376" cx=".985" cy=".985" r=".985" style="fill:#baddfe" data-name="Ellipse 376" transform="translate(48.277 7.882)"/>
    <circle id="Ellipse_377" cx=".985" cy=".985" r=".985" style="fill:#228ced" data-name="Ellipse 377" transform="translate(44.336 7.882)"/>
    <circle id="Ellipse_378" cx=".985" cy=".985" r=".985" style="fill:#228ced" data-name="Ellipse 378" transform="translate(50.248 10.838)"/>
    <circle id="Ellipse_379" cx=".985" cy=".985" r=".985" style="fill:#baddfe" data-name="Ellipse 379" transform="translate(46.307 10.838)"/>
    <circle id="Ellipse_380" cx=".985" cy=".985" r=".985" style="fill:#baddfe" data-name="Ellipse 380" transform="translate(40.395 7.882)"/>
    <circle id="Ellipse_381" cx=".985" cy=".985" r=".985" style="fill:#baddfe" data-name="Ellipse 381" transform="translate(42.366 10.838)"/>
    <circle id="Ellipse_382" cx=".985" cy=".985" r=".985" style="fill:#baddfe" data-name="Ellipse 382" transform="translate(36.454 7.882)"/>
    <circle id="Ellipse_383" cx=".985" cy=".985" r=".985" style="fill:#228ced" data-name="Ellipse 383" transform="translate(38.425 10.838)"/>
    <circle id="Ellipse_384" cx=".985" cy=".985" r=".985" style="fill:#228ced" data-name="Ellipse 384" transform="translate(32.513 7.882)"/>
    <circle id="Ellipse_385" cx=".985" cy=".985" r=".985" style="fill:#baddfe" data-name="Ellipse 385" transform="translate(34.484 10.838)"/>
    <path id="Path_17507" d="M59.115 16.65V5.04A4.545 4.545 0 0 0 54.575.5H4.54A4.545 4.545 0 0 0 0 5.04v11.609A4.513 4.513 0 0 0 1.751 20.2 4.518 4.518 0 0 0 0 23.76v11.609a4.513 4.513 0 0 0 1.751 3.555A4.518 4.518 0 0 0 0 42.48v11.609a4.545 4.545 0 0 0 4.54 4.541h50.034a4.545 4.545 0 0 0 4.54-4.54V42.48a4.513 4.513 0 0 0-1.751-3.555 4.513 4.513 0 0 0 1.752-3.555V23.76a4.513 4.513 0 0 0-1.751-3.555 4.515 4.515 0 0 0 1.751-3.555zm-1.97 25.83v11.609a2.573 2.573 0 0 1-2.57 2.57H4.54a2.571 2.571 0 0 1-2.57-2.569V42.48a2.573 2.573 0 0 1 2.57-2.57h50.034a2.573 2.573 0 0 1 2.571 2.57zm0-18.72v11.609a2.573 2.573 0 0 1-2.57 2.57H4.54a2.571 2.571 0 0 1-2.57-2.569V23.76a2.573 2.573 0 0 1 2.57-2.57h50.034a2.573 2.573 0 0 1 2.571 2.57zM4.54 19.22a2.573 2.573 0 0 1-2.57-2.57V5.04a2.573 2.573 0 0 1 2.57-2.57h50.034a2.573 2.573 0 0 1 2.571 2.57v11.609a2.573 2.573 0 0 1-2.57 2.57H4.54z" style="fill:#228ced" data-name="Path 17507" transform="translate(0 -.5)"/>
    <path id="Path_17508" d="M10.434 34.367A4.434 4.434 0 1 0 6 29.934a4.439 4.439 0 0 0 4.434 4.433zm0-6.9a2.463 2.463 0 1 1-2.463 2.463 2.466 2.466 0 0 1 2.463-2.46z" style="fill:#228ced" data-name="Path 17508" transform="translate(-.088 -.869)"/>
    <circle id="Ellipse_386" cx=".985" cy=".985" r=".985" style="fill:#baddfe" data-name="Ellipse 386" transform="translate(48.277 26.602)"/>
    <circle id="Ellipse_387" cx=".985" cy=".985" r=".985" style="fill:#baddfe" data-name="Ellipse 387" transform="translate(44.336 26.602)"/>
    <circle id="Ellipse_388" cx=".985" cy=".985" r=".985" style="fill:#baddfe" data-name="Ellipse 388" transform="translate(50.248 29.558)"/>
    <circle id="Ellipse_389" cx=".985" cy=".985" r=".985" style="fill:#228ced" data-name="Ellipse 389" transform="translate(46.307 29.558)"/>
    <circle id="Ellipse_390" cx=".985" cy=".985" r=".985" style="fill:#228ced" data-name="Ellipse 390" transform="translate(40.395 26.602)"/>
    <circle id="Ellipse_391" cx=".985" cy=".985" r=".985" style="fill:#baddfe" data-name="Ellipse 391" transform="translate(42.366 29.558)"/>
    <circle id="Ellipse_392" cx=".985" cy=".985" r=".985" style="fill:#baddfe" data-name="Ellipse 392" transform="translate(36.454 26.602)"/>
    <circle id="Ellipse_393" cx=".985" cy=".985" r=".985" style="fill:#baddfe" data-name="Ellipse 393" transform="translate(38.425 29.558)"/>
    <circle id="Ellipse_394" cx=".985" cy=".985" r=".985" style="fill:#baddfe" data-name="Ellipse 394" transform="translate(32.513 26.602)"/>
    <circle id="Ellipse_395" cx=".985" cy=".985" r=".985" style="fill:#228ced" data-name="Ellipse 395" transform="translate(34.484 29.558)"/>
    <path id="Path_17509" d="M10.434 53.367A4.434 4.434 0 1 0 6 48.934a4.439 4.439 0 0 0 4.434 4.433zm0-6.9a2.463 2.463 0 1 1-2.463 2.463 2.466 2.466 0 0 1 2.463-2.46z" style="fill:#228ced" data-name="Path 17509" transform="translate(-.088 -1.149)"/>
    <circle id="Ellipse_396" cx=".985" cy=".985" r=".985" style="fill:#baddfe" data-name="Ellipse 396" transform="translate(48.277 45.322)"/>
    <circle id="Ellipse_397" cx=".985" cy=".985" r=".985" style="fill:#228ced" data-name="Ellipse 397" transform="translate(44.336 45.322)"/>
    <circle id="Ellipse_398" cx=".985" cy=".985" r=".985" style="fill:#228ced" data-name="Ellipse 398" transform="translate(50.248 48.277)"/>
    <circle id="Ellipse_399" cx=".985" cy=".985" r=".985" style="fill:#baddfe" data-name="Ellipse 399" transform="translate(46.307 48.277)"/>
    <circle id="Ellipse_400" cx=".985" cy=".985" r=".985" style="fill:#baddfe" data-name="Ellipse 400" transform="translate(40.395 45.322)"/>
    <circle id="Ellipse_401" cx=".985" cy=".985" r=".985" style="fill:#baddfe" data-name="Ellipse 401" transform="translate(42.366 48.277)"/>
    <circle id="Ellipse_402" cx=".985" cy=".985" r=".985" style="fill:#baddfe" data-name="Ellipse 402" transform="translate(36.454 45.322)"/>
    <circle id="Ellipse_403" cx=".985" cy=".985" r=".985" style="fill:#228ced" data-name="Ellipse 403" transform="translate(38.425 48.277)"/>
    <circle id="Ellipse_404" cx=".985" cy=".985" r=".985" style="fill:#228ced" data-name="Ellipse 404" transform="translate(32.513 45.322)"/>
    <circle id="Ellipse_405" cx=".985" cy=".985" r=".985" style="fill:#baddfe" data-name="Ellipse 405" transform="translate(34.484 48.277)"/>
</svg>
