<svg width="16" height="16" viewBox="0 0 16 16" fill="none" xmlns="http://www.w3.org/2000/svg">
<path d="M5.33325 3.83337C5.05992 3.83337 4.83325 3.60671 4.83325 3.33337V1.33337C4.83325 1.06004 5.05992 0.833374 5.33325 0.833374C5.60659 0.833374 5.83325 1.06004 5.83325 1.33337V3.33337C5.83325 3.60671 5.60659 3.83337 5.33325 3.83337Z" fill="#AAAAAA"/>
<path d="M10.6667 3.83337C10.3934 3.83337 10.1667 3.60671 10.1667 3.33337V1.33337C10.1667 1.06004 10.3934 0.833374 10.6667 0.833374C10.9401 0.833374 11.1667 1.06004 11.1667 1.33337V3.33337C11.1667 3.60671 10.9401 3.83337 10.6667 3.83337Z" fill="#AAAAAA"/>
<path d="M10 15.1667H6C2.25333 15.1667 1.5 13.4 1.5 10.5467V6.43337C1.5 3.27337 2.56667 1.98671 5.30667 1.83337H10.6667C10.6733 1.83337 10.6867 1.83337 10.6933 1.83337C13.4333 1.98671 14.5 3.27337 14.5 6.43337V10.5467C14.5 13.4 13.7467 15.1667 10 15.1667ZM5.33333 2.83337C3.46667 2.94004 2.5 3.52671 2.5 6.43337V10.5467C2.5 13.1 2.98667 14.1667 6 14.1667H10C13.0133 14.1667 13.5 13.1 13.5 10.5467V6.43337C13.5 3.53337 12.54 2.94004 10.6533 2.83337H5.33333Z" fill="#AAAAAA"/>
<path d="M13.8334 12.2333H2.16675C1.89341 12.2333 1.66675 12.0066 1.66675 11.7333C1.66675 11.4599 1.89341 11.2333 2.16675 11.2333H13.8334C14.1067 11.2333 14.3334 11.4599 14.3334 11.7333C14.3334 12.0066 14.1067 12.2333 13.8334 12.2333Z" fill="#AAAAAA"/>
<path d="M5.59378 9.544C5.80711 9.20267 6.04711 8.74133 6.31378 8.16C6.58578 7.57867 6.83911 6.95467 7.07378 6.288C7.30845 5.62133 7.47378 4.99733 7.56978 4.416H8.43378C8.50311 4.992 8.65245 5.61333 8.88178 6.28C9.11645 6.94667 9.37245 7.57067 9.64978 8.152C9.93245 8.728 10.1858 9.192 10.4098 9.544L9.56978 10.168C9.32978 9.78933 9.07911 9.29867 8.81778 8.696C8.55645 8.088 8.31111 7.424 8.08178 6.704C7.85778 5.97867 7.68711 5.26667 7.56978 4.568H8.42578C8.23911 5.61867 7.95111 6.672 7.56178 7.728C7.17778 8.784 6.80178 9.59733 6.43378 10.168L5.59378 9.544Z" fill="#AAAAAA"/>
</svg>
