<svg width="16" height="16" viewBox="0 0 16 16" fill="none" xmlns="http://www.w3.org/2000/svg">
<path d="M13.9999 4.48666C13.9866 4.48666 13.9666 4.48666 13.9466 4.48666C10.4199 4.13333 6.89995 3.99999 3.41328 4.35333L2.05328 4.48666C1.77328 4.51333 1.52661 4.31333 1.49995 4.03333C1.47328 3.75333 1.67328 3.51333 1.94661 3.48666L3.30661 3.35333C6.85328 2.99333 10.4466 3.13333 14.0466 3.48666C14.3199 3.51333 14.5199 3.75999 14.4933 4.03333C14.4733 4.29333 14.2533 4.48666 13.9999 4.48666Z" fill="#AAAAAA"/>
<path d="M5.66675 3.81334C5.64008 3.81334 5.61341 3.81334 5.58008 3.80668C5.31341 3.76001 5.12675 3.50001 5.17341 3.23334L5.32008 2.36001C5.42675 1.72001 5.57341 0.833344 7.12675 0.833344H8.87341C10.4334 0.833344 10.5801 1.75334 10.6801 2.36668L10.8267 3.23334C10.8734 3.50668 10.6867 3.76668 10.4201 3.80668C10.1467 3.85334 9.88675 3.66668 9.84675 3.40001L9.70008 2.53334C9.60675 1.95334 9.58675 1.84001 8.88008 1.84001H7.13341C6.42675 1.84001 6.41341 1.93334 6.31341 2.52668L6.16008 3.39334C6.12008 3.64001 5.90675 3.81334 5.66675 3.81334Z" fill="#AAAAAA"/>
<path d="M10.14 15.1667H5.86003C3.53337 15.1667 3.44003 13.88 3.3667 12.84L2.93337 6.12666C2.91337 5.85332 3.1267 5.61332 3.40003 5.59332C3.68003 5.57999 3.91337 5.78666 3.93337 6.05999L4.3667 12.7733C4.44003 13.7867 4.4667 14.1667 5.86003 14.1667H10.14C11.54 14.1667 11.5667 13.7867 11.6334 12.7733L12.0667 6.05999C12.0867 5.78666 12.3267 5.57999 12.6 5.59332C12.8734 5.61332 13.0867 5.84666 13.0667 6.12666L12.6334 12.84C12.56 13.88 12.4667 15.1667 10.14 15.1667Z" fill="#AAAAAA"/>
<path d="M9.10664 11.5H6.88664C6.61331 11.5 6.38664 11.2733 6.38664 11C6.38664 10.7267 6.61331 10.5 6.88664 10.5H9.10664C9.37998 10.5 9.60664 10.7267 9.60664 11C9.60664 11.2733 9.37998 11.5 9.10664 11.5Z" fill="#AAAAAA"/>
<path d="M9.66667 8.83334H6.33333C6.06 8.83334 5.83333 8.60668 5.83333 8.33334C5.83333 8.06001 6.06 7.83334 6.33333 7.83334H9.66667C9.94 7.83334 10.1667 8.06001 10.1667 8.33334C10.1667 8.60668 9.94 8.83334 9.66667 8.83334Z" fill="#AAAAAA"/>
</svg>
