<svg width="30" height="34" viewBox="0 0 30 34" fill="none" xmlns="http://www.w3.org/2000/svg">
<path d="M25 0.333344H5C2.23333 0.333344 0 2.55001 0 5.28334V23.4667C0 26.2 2.23333 28.4167 5 28.4167H6.26667C7.6 28.4167 8.86667 28.9333 9.8 29.8667L12.65 32.6833C13.95 33.9667 16.0667 33.9667 17.3667 32.6833L20.2167 29.8667C21.15 28.9333 22.4333 28.4167 23.75 28.4167H25C27.7667 28.4167 30 26.2 30 23.4667V5.28334C30 2.55001 27.7667 0.333344 25 0.333344ZM15 6.58334C17.15 6.58334 18.8833 8.31668 18.8833 10.4667C18.8833 12.6167 17.15 14.35 15 14.35C12.85 14.35 11.1167 12.6 11.1167 10.4667C11.1167 8.31668 12.85 6.58334 15 6.58334ZM19.4667 22.1H10.5333C9.18333 22.1 8.4 20.6 9.15 19.4833C10.2833 17.8 12.4833 16.6667 15 16.6667C17.5167 16.6667 19.7167 17.8 20.85 19.4833C21.6 20.6 20.8 22.1 19.4667 22.1Z" fill="#2082DB"/>
</svg>
