<svg width="26" height="30" viewBox="0 0 26 30" fill="none" xmlns="http://www.w3.org/2000/svg">
<path fill-rule="evenodd" clip-rule="evenodd" d="M5 2.68018C3.33019 2.68018 2 4.01448 2 5.64014V20.1868C2 21.8125 3.33019 23.1468 5 23.1468H6C7.31023 23.1468 8.59251 23.6596 9.53165 24.5976C9.53236 24.5983 9.53306 24.599 9.53377 24.5997L11.8092 26.8485C12.4597 27.4902 13.5266 27.4906 14.177 26.8489L16.4529 24.5997C16.4536 24.599 16.4544 24.5982 16.4551 24.5975C17.393 23.6608 18.6614 23.1468 19.9867 23.1468H21C22.6676 23.1468 24 21.8014 24 20.1868V5.64014C24 4.01448 22.6698 2.68018 21 2.68018H5ZM0 5.64014C0 2.89246 2.24314 0.680176 5 0.680176H21C23.7569 0.680176 26 2.89246 26 5.64014V20.1868C26 22.919 23.7591 25.1468 21 25.1468H19.9867C19.1796 25.1468 18.4223 25.4587 17.8671 26.0139L17.8629 26.0181L15.5829 28.2714C14.1534 29.6825 11.8336 29.6829 10.4042 28.2718L8.12373 26.0181L8.11955 26.0139C7.56555 25.4599 6.79546 25.1468 6 25.1468H5C2.24314 25.1468 0 22.9345 0 20.1868V5.64014Z" fill="#2082DB"/>
<path fill-rule="evenodd" clip-rule="evenodd" d="M13 7.12012C11.8365 7.12012 10.8933 8.06328 10.8933 9.22673C10.8933 10.3902 11.8365 11.3334 13 11.3334C14.1635 11.3334 15.1067 10.3902 15.1067 9.22673C15.1067 8.06328 14.1635 7.12012 13 7.12012ZM8.8933 9.22673C8.8933 6.95864 10.732 5.12012 13 5.12012C15.268 5.12012 17.1067 6.95864 17.1067 9.22673C17.1067 11.4948 15.268 13.3334 13 13.3334C10.7319 13.3334 8.8933 11.4948 8.8933 9.22673Z" fill="#2082DB"/>
<path fill-rule="evenodd" clip-rule="evenodd" d="M6.66667 19.8803C6.66667 16.7467 9.70176 14.5337 13 14.5337C16.2983 14.5337 19.3333 16.7467 19.3333 19.8803C19.3333 20.4326 18.8856 20.8803 18.3333 20.8803C17.7811 20.8803 17.3333 20.4326 17.3333 19.8803C17.3333 18.2139 15.5951 16.5337 13 16.5337C10.4049 16.5337 8.66667 18.2139 8.66667 19.8803C8.66667 20.4326 8.21896 20.8803 7.66667 20.8803C7.11439 20.8803 6.66667 20.4326 6.66667 19.8803Z" fill="#2082DB"/>
</svg>
