<svg width="16" height="16" viewBox="0 0 16 16" fill="none" xmlns="http://www.w3.org/2000/svg">
<path d="M5.33325 3.83337C5.05992 3.83337 4.83325 3.60671 4.83325 3.33337V1.33337C4.83325 1.06004 5.05992 0.833374 5.33325 0.833374C5.60659 0.833374 5.83325 1.06004 5.83325 1.33337V3.33337C5.83325 3.60671 5.60659 3.83337 5.33325 3.83337Z" fill="#AAAAAA"/>
<path d="M10.6667 3.83337C10.3934 3.83337 10.1667 3.60671 10.1667 3.33337V1.33337C10.1667 1.06004 10.3934 0.833374 10.6667 0.833374C10.9401 0.833374 11.1667 1.06004 11.1667 1.33337V3.33337C11.1667 3.60671 10.9401 3.83337 10.6667 3.83337Z" fill="#AAAAAA"/>
<path d="M10 15.1667H6C2.25333 15.1667 1.5 13.4 1.5 10.5467V6.43337C1.5 3.27337 2.56667 1.98671 5.30667 1.83337H10.6667C10.6733 1.83337 10.6867 1.83337 10.6933 1.83337C13.4333 1.98671 14.5 3.27337 14.5 6.43337V10.5467C14.5 13.4 13.7467 15.1667 10 15.1667ZM5.33333 2.83337C3.46667 2.94004 2.5 3.52671 2.5 6.43337V10.5467C2.5 13.1 2.98667 14.1667 6 14.1667H10C13.0133 14.1667 13.5 13.1 13.5 10.5467V6.43337C13.5 3.53337 12.54 2.94004 10.6533 2.83337H5.33333Z" fill="#AAAAAA"/>
<path d="M13.8334 12.2334H2.16675C1.89341 12.2334 1.66675 12.0067 1.66675 11.7334C1.66675 11.4601 1.89341 11.2334 2.16675 11.2334H13.8334C14.1067 11.2334 14.3334 11.4601 14.3334 11.7334C14.3334 12.0067 14.1067 12.2334 13.8334 12.2334Z" fill="#AAAAAA"/>
<path fill-rule="evenodd" clip-rule="evenodd" d="M7.58919 5.14497C7.76492 5.33843 7.76492 5.65208 7.58919 5.84554L6.08639 7.49988L7.58919 9.15422C7.76492 9.34767 7.76492 9.66133 7.58919 9.85478C7.41345 10.0482 7.12853 10.0482 6.95279 9.85478L5.1318 7.85016C4.95607 7.65671 4.95607 7.34305 5.1318 7.14959L6.95279 5.14497C7.12853 4.95151 7.41345 4.95151 7.58919 5.14497Z" fill="#AAAAAA"/>
<path fill-rule="evenodd" clip-rule="evenodd" d="M5.05102 7.49977C5.05102 7.22619 5.25249 7.0044 5.50102 7.0044H10.55C10.7985 7.0044 11 7.22619 11 7.49977C11 7.77336 10.7985 7.99515 10.55 7.99515H5.50102C5.25249 7.99515 5.05102 7.77336 5.05102 7.49977Z" fill="#AAAAAA"/>
</svg>
